<svg width="52" height="52" viewBox="0 0 52 52" fill="none" xmlns="http://www.w3.org/2000/svg">
<g id="camera-off">
<path id="Vector" d="M4.33331 4.33398L47.6666 47.6673" stroke="#B7B7B7" stroke-width="3" stroke-linecap="round" stroke-linejoin="round"/>
<path id="Vector_2" d="M15.1666 15.166H8.66665C7.51737 15.166 6.41517 15.6226 5.60252 16.4352C4.78986 17.2479 4.33331 18.3501 4.33331 19.4993V38.9993C4.33331 40.1486 4.78986 41.2508 5.60252 42.0635C6.41517 42.8761 7.51737 43.3327 8.66665 43.3327H43.3333" stroke="#B7B7B7" stroke-width="3" stroke-linecap="round" stroke-linejoin="round"/>
<path id="Vector_3" d="M20.5833 8.66602H31.4166L36.8333 15.166H43.3333C44.4826 15.166 45.5848 15.6226 46.3974 16.4352C47.2101 17.2479 47.6666 18.3501 47.6666 19.4993V35.7493" stroke="#B7B7B7" stroke-width="3" stroke-linecap="round" stroke-linejoin="round"/>
<path id="Vector_4" d="M30.5955 32.7631C29.9985 33.3942 29.281 33.8993 28.4854 34.2485C27.6899 34.5976 26.8324 34.7837 25.9637 34.7958C25.095 34.8079 24.2326 34.6457 23.4277 34.3188C22.6227 33.9919 21.8914 33.507 21.2771 32.8926C20.6628 32.2783 20.1778 31.547 19.8509 30.7421C19.524 29.9371 19.3618 29.0748 19.3739 28.2061C19.386 27.3373 19.5721 26.4799 19.9213 25.6843C20.2704 24.8887 20.7755 24.1712 21.4067 23.5742" stroke="#B7B7B7" stroke-width="3" stroke-linecap="round" stroke-linejoin="round"/>
</g>
</svg>
