<svg width="86" height="46" viewBox="0 0 86 46" fill="none" xmlns="http://www.w3.org/2000/svg">
<path fill-rule="evenodd" clip-rule="evenodd" d="M36.2736 38.6483H32.4978V37.8048H36.2736V36.547H31.3609V42.0153H36.2736V38.6483ZM35.1365 40.7499H32.4978V39.914H35.1365V40.7499Z" fill="#1384D9"/>
<path d="M41.6983 36.547H42.8354V42.0153H37.9228V40.7499H41.6983V39.914H37.9228V36.547H39.0596V38.6483H41.6983V36.547Z" fill="#1384D9"/>
<path fill-rule="evenodd" clip-rule="evenodd" d="M50.1067 40.7258H49.545V36.5467H46.1553L45.0534 38.2418V40.7258H44.4849V43.249H45.6219V42.0149H48.9764V43.249H50.1067V40.7258ZM48.4079 40.7495H46.1834V38.773L46.8078 37.8045H48.4079V40.7495Z" fill="#1384D9"/>
<path d="M55.5313 36.547H56.6684V42.0153H51.7558V40.7499H55.5313V39.914H51.7558V36.547H52.8926V38.6483H55.5313V36.547Z" fill="#1384D9"/>
<path d="M63.7994 40.7495H63.2306V36.5467H62.0936V40.7495H61.343V36.5467H60.2059V40.7495H59.4552V36.5467H58.3181V42.0149H62.6625V43.2727H63.7994V40.7495Z" fill="#1384D9"/>
<path d="M70.0103 37.8124H66.2344V38.648H70.0103V39.914H66.2344V40.7499H70.0103V42.0149H65.0974V36.5467H70.0103V37.8124Z" fill="#1384D9"/>
<path d="M76.5717 37.8048V36.547H71.6588V42.0153H72.7964V37.8048H76.5717Z" fill="#1384D9"/>
<path fill-rule="evenodd" clip-rule="evenodd" d="M78.2208 36.547H83.1338V42.0153H78.2208V36.547ZM79.3585 40.7499H81.9968V37.8048H79.3585V40.7499Z" fill="#1384D9"/>
<path d="M21.4186 14.8482V4.28283H17.8509V10.877H9.57026V4.28283H6.0024V21.4423H9.57026V14.8482H12.8517L17.146 21.4423H21.4186L17.124 14.8482H21.4186Z" fill="#1384D9"/>
<path fill-rule="evenodd" clip-rule="evenodd" d="M23.6204 4.28283H39.0365V21.4424H23.6204V4.28283ZM27.188 17.4712H35.4686V8.22941H27.188V17.4712Z" fill="#1384D9"/>
<path fill-rule="evenodd" clip-rule="evenodd" d="M58.8791 17.3978H57.1172V4.28311H46.48L43.0225 9.60237V17.3978H41.2384V25.3158H44.8063V21.4426H55.3334V25.3158H58.8791V17.3978ZM53.5493 17.4715H46.5681V11.2693L48.5282 8.22969H53.5493V17.4715Z" fill="#1384D9"/>
<path fill-rule="evenodd" clip-rule="evenodd" d="M31.279 45.9116C31.3595 45.9691 31.4533 46 31.5492 46L85.4186 45.9073C85.6923 45.907 85.915 45.6608 85.9169 45.3557L86 33.6039C86.0012 33.4612 85.9528 33.3235 85.8653 33.2193L58.0732 0.176174C57.9786 0.0637674 57.8463 0 57.708 0H0.499568C0.223813 0 0 0.24913 0 0.55632V23.217C0 23.4061 0.0862702 23.5825 0.229386 23.6847L31.279 45.9116ZM31.6957 44.8874L0.99936 22.9133V1.11264H57.4914L84.9995 33.8173L84.9215 44.7957L31.6957 44.8874Z" fill="#1384D9"/>
</svg>
