<svg width="145" height="45" viewBox="0 0 145 45" fill="none" xmlns="http://www.w3.org/2000/svg">
<rect x="1" width="44" height="44" rx="22" fill="#1384D9"/>
<path d="M18.7059 37.064H27.4686L27.7082 42.6167L27.0965 44.1846L22.858 43.9131L21.0015 43.75L20.2407 44.3749L18.7735 44.0036L18.468 42.5353L18.7059 37.064Z" fill="#1384D9"/>
<path fill-rule="evenodd" clip-rule="evenodd" d="M1.22498 25.1764C1.57453 27.5246 2.24315 29.6802 3.26233 31.745C4.10125 33.4445 5.06324 34.9019 6.30207 36.3497C8.95112 39.446 12.4563 41.7723 16.3253 43.0017C16.814 43.157 17.763 43.4183 17.9733 43.4554C18.0893 43.4761 18.1283 43.5114 18.2696 43.7242C18.3591 43.8588 18.5635 44.0901 18.7239 44.2379L19.0156 44.5063C19.0156 44.5063 19.3518 44.6874 19.8576 44.6874C20.4042 44.6874 20.7404 44.5063 20.7404 44.5063L20.8589 44.4092C21.0418 44.2596 21.1381 44.1508 21.1381 44.094C21.1381 44.0226 21.1509 44.0262 21.3999 44.1654C21.5209 44.2332 21.7697 44.3378 21.9528 44.3974C22.2768 44.5034 22.3035 44.5063 22.9702 44.5063C23.7178 44.5063 23.8676 44.4824 24.3346 44.2878L24.5996 44.1775L24.732 44.2653C25.1098 44.5163 25.0777 44.6874 25.9519 44.6874C26.8051 44.6874 26.7836 44.5074 27.0751 44.3057C27.2191 44.2061 27.5284 43.8777 27.6477 43.6978C27.7588 43.5304 27.7879 43.5093 27.9576 43.4732C28.0606 43.4511 28.4096 43.3622 28.7332 43.2751C33.4358 42.0111 37.6321 39.1654 40.5774 35.2432C42.3917 32.8273 43.6829 30.0845 44.3839 27.158C44.7505 25.6274 44.9412 24.1385 44.9804 22.4996C45.0307 20.4045 44.7865 18.3598 44.242 16.3223C42.9176 11.3657 39.9277 7.06247 35.7221 4.0599C33.1967 2.25695 30.2718 0.99965 27.2194 0.404912C23.8389 -0.253758 20.3009 -0.106653 16.9883 0.83027C11.8779 2.27565 7.4382 5.56879 4.50871 10.087C3.87746 11.0606 3.35201 12.0394 2.81799 13.2364C2.18054 14.6652 1.61978 16.5389 1.33302 18.1982C1.13241 19.3591 0.987616 20.5481 0.991026 22.0635C0.993769 23.2826 1.1419 24.6181 1.22498 25.1764ZM1.89863 20.0544C2.14253 17.653 2.59278 15.8889 3.5529 13.5729C3.76817 13.0536 4.49865 11.6128 4.66575 11.3779C4.70406 11.324 4.73544 11.2712 4.73544 11.2605C4.73544 11.1958 5.62735 9.842 5.93836 9.43467C5.95337 9.41504 6.03663 9.3026 6.12339 9.1848C7.36706 7.49621 9.30207 5.66913 11.1717 4.41801C15.6062 1.4505 20.7828 0.274871 26.0767 1.0331C29.6717 1.54798 33.2081 3.06744 36.0605 5.32284C36.8159 5.92008 37.247 6.30306 37.9373 6.98936C39.5925 8.63557 40.8545 10.3792 41.9424 12.5224C43.9471 16.4721 44.6431 21.2238 43.8668 25.6587C43.286 28.9765 41.9699 32.0281 39.9641 34.7078C39.2274 35.6916 38.797 36.1876 37.918 37.065C35.9039 39.0751 33.444 40.6911 30.8013 41.7398C30.1606 41.9943 29.1748 42.3231 28.6084 42.4716C28.3731 42.5334 28.1524 42.5919 28.1181 42.6015C28.0627 42.6172 28.0557 42.5898 28.0557 42.3531C28.0557 41.5053 27.5102 40.9167 26.7875 40.9841L26.5669 41.0048L26.5427 40.7478C26.4788 40.0682 26.1827 39.2982 25.8277 38.8877C25.7452 38.7924 25.7143 38.7235 25.7539 38.7235C25.7627 38.7235 25.9433 38.6906 26.1551 38.6503C28.0905 38.2819 29.9577 37.5698 31.6571 36.5524C36.0316 33.9339 39.007 29.4722 39.7316 24.4446C39.8639 23.5282 39.9017 22.8502 39.8832 21.7321C39.8721 21.066 39.8429 20.4563 39.8076 20.1615C39.5248 17.8058 38.8391 15.6736 37.7333 13.7125C35.9609 10.5691 33.1374 7.99711 29.8709 6.55047C28.0455 5.74206 26.2989 5.30367 24.2127 5.13033C23.4851 5.06989 21.8268 5.10634 21.0489 5.1999C19.0062 5.4456 17.2335 5.97844 15.389 6.90112C14.6788 7.25644 14.3952 7.42107 13.6856 7.8902C13.1178 8.26551 13.056 8.31056 12.491 8.7604C9.85797 10.8569 7.93555 13.6233 6.91235 16.7882C6.35734 18.5049 6.09133 20.1993 6.09133 22.0177C6.09133 25.3497 7.02421 28.4829 8.85613 31.3033C9.46652 32.2431 10.1663 33.0988 11.0273 33.9585C11.743 34.673 12.2334 35.1007 12.9367 35.6236C14.619 36.874 16.7415 37.8921 18.7306 38.4022C19.069 38.4889 20.1651 38.7235 20.2321 38.7235C20.2761 38.7235 20.2318 38.8188 20.1187 38.9666C19.8743 39.2864 19.6426 39.8379 19.5548 40.3084L19.5156 40.5186L19.1611 40.7003C18.6802 40.947 18.3046 41.3068 18.1297 41.6888C17.9998 41.9726 17.9288 42.2481 17.9288 42.4687V42.6051L17.7951 42.5794C17.6434 42.5501 17.5516 42.5244 16.8056 42.3024C15.5435 41.9269 14.0852 41.3143 12.8476 40.64C9.30874 38.7121 6.28984 35.6834 4.37296 32.1376C2.90336 29.4193 2.10398 26.6508 1.84774 23.392C1.80103 22.798 1.83302 20.7005 1.89863 20.0544ZM3.43027 23.3844C3.49364 23.5277 3.67724 23.7115 3.82893 23.7836C4.14361 23.9331 4.69959 23.8713 4.95784 23.6582C5.36466 23.3225 5.31335 22.5705 4.86959 22.3651C4.59336 22.2372 4.59365 22.2371 4.54009 22.5043C4.51962 22.6064 4.52786 22.6198 4.63394 22.6568C4.83521 22.727 4.91373 22.8291 4.91373 23.0207C4.91373 23.3439 4.70534 23.4807 4.21225 23.481C3.99039 23.4812 3.94221 23.4693 3.84911 23.3908C3.63003 23.2063 3.627 22.8863 3.84287 22.7324C3.93922 22.6638 3.94179 22.6545 3.9021 22.52C3.84865 22.3387 3.83153 22.3244 3.73119 22.3762C3.5958 22.4462 3.48462 22.5629 3.43085 22.6914C3.36987 22.8371 3.36951 23.2471 3.43027 23.3844ZM3.54092 22.0534H3.70138V21.78V21.5067L4.45209 21.5308L5.20277 21.555L5.19197 21.3669L5.18116 21.1788L4.44128 21.1692L3.70138 21.1595V20.8925V20.6255H3.56424H3.42707L3.40378 21.0595C3.39094 21.2982 3.38046 21.6194 3.38046 21.7734V22.0534H3.54092ZM4.22733 20.2807C5.15788 20.3959 5.27016 20.3994 5.27066 20.3132C5.27084 20.2789 5.29438 20.0419 5.32294 19.7867C5.38238 19.2554 5.36263 19.1226 5.20124 18.9678C5.0059 18.7805 4.59611 18.8129 4.48293 19.0247C4.44271 19.0999 4.4411 19.0994 4.35649 18.9912C4.24235 18.8452 4.06292 18.7861 3.89868 18.8403C3.75501 18.8878 3.60963 19.046 3.57925 19.1879C3.56125 19.2721 3.45292 20.1036 3.45206 20.1642C3.45192 20.1755 3.80076 20.228 4.22733 20.2807ZM3.57858 25.2304C3.60393 25.3973 3.62589 25.5384 3.62739 25.5439C3.63035 25.5552 3.66408 25.5514 4.67919 25.4253C5.06987 25.3768 5.39604 25.3306 5.40392 25.3227C5.41183 25.3148 5.40723 25.2345 5.39372 25.1444C5.36576 24.9577 5.37186 24.9595 4.97078 25.0175C4.8355 25.0371 4.71818 25.0465 4.71012 25.0384C4.70206 25.0304 4.68058 24.9184 4.66236 24.7896C4.616 24.4618 4.54201 24.2991 4.39304 24.1973C4.15662 24.0358 3.73615 24.1135 3.59533 24.3447C3.51083 24.4835 3.50576 24.7513 3.57858 25.2304ZM3.90731 26.8129L4.03738 27.378L4.18137 27.3559C4.2606 27.3437 4.65434 27.2574 5.05636 27.164C5.76656 26.9991 5.78724 26.9917 5.78349 26.9065C5.77932 26.8116 5.52715 25.6898 5.50501 25.6676C5.49759 25.6602 5.43373 25.665 5.36309 25.6783C5.20709 25.7076 5.20723 25.7059 5.32551 26.2306C5.3755 26.4522 5.40919 26.6522 5.40042 26.6751C5.37782 26.734 4.98248 26.8189 4.95295 26.7711C4.94037 26.7507 4.89155 26.5564 4.84448 26.3392C4.76186 25.9579 4.75569 25.9443 4.66486 25.9443C4.61312 25.9443 4.54551 25.9644 4.51459 25.9889C4.4636 26.0294 4.46457 26.0583 4.52501 26.3013C4.56163 26.4485 4.60174 26.6435 4.61411 26.7346L4.63665 26.9003L4.45198 26.9257C4.35042 26.9397 4.26324 26.9455 4.25821 26.9386C4.25322 26.9316 4.20551 26.7334 4.1522 26.498C4.09889 26.2627 4.04345 26.0583 4.029 26.0438C4.01456 26.0294 3.95501 26.0303 3.89664 26.0457C3.75191 26.0842 3.75269 26.1409 3.90731 26.8129ZM3.877 19.294C3.93736 19.135 4.15866 19.1307 4.22987 19.2872C4.26613 19.3668 4.23953 19.8488 4.19649 19.8919C4.18665 19.9018 4.09319 19.8997 3.98885 19.8874L3.79915 19.8649L3.82162 19.6227C3.83399 19.4895 3.85888 19.3416 3.877 19.294ZM3.91533 24.5521C4.09383 24.3734 4.32165 24.5276 4.36248 24.8547C4.39168 25.0886 4.3674 25.1215 4.16493 25.1232C4.09629 25.1238 4.00533 25.1336 3.96282 25.145C3.87411 25.1688 3.85681 25.1182 3.84886 24.8109C3.84512 24.6668 3.86045 24.6071 3.91533 24.5521ZM3.88851 17.9284C3.93979 18.1226 4.20647 18.3833 4.43301 18.4606C4.96989 18.6437 5.38427 18.5318 5.61248 18.142C5.71375 17.969 5.76271 17.6315 5.71977 17.4025C5.68857 17.2358 5.45395 16.976 5.2467 16.8784C5.03942 16.7809 4.62356 16.7428 4.43732 16.8044C4.16743 16.8935 3.9538 17.1537 3.88438 17.4778C3.83774 17.6956 3.83813 17.7374 3.88851 17.9284ZM4.38719 28.491C4.50671 28.8414 4.62385 29.1355 4.64749 29.1445C4.6711 29.1536 4.73972 29.14 4.79998 29.1144L4.90956 29.0677L4.82487 28.8274C4.7783 28.6952 4.75395 28.5786 4.77078 28.5682C4.78757 28.5578 5.10029 28.4468 5.46571 28.3216C5.8311 28.1965 6.13665 28.0874 6.14474 28.0793C6.17195 28.0521 6.07653 27.7929 6.03317 27.7763C6.00957 27.7672 5.68408 27.8642 5.30992 27.9918C4.93573 28.1194 4.62346 28.2129 4.61597 28.1996C4.60844 28.1863 4.57414 28.087 4.5397 27.979C4.50525 27.871 4.46449 27.7689 4.44909 27.752C4.41903 27.7192 4.16329 27.79 4.16739 27.8301C4.16875 27.8432 4.26766 28.1407 4.38719 28.491ZM4.25722 17.3509C4.38633 17.1501 4.64738 17.0862 4.96294 17.178C5.07405 17.2104 5.21557 17.2821 5.27737 17.3374C5.37532 17.425 5.39183 17.4662 5.40563 17.6573C5.42128 17.8739 5.41964 17.8786 5.27879 18.0196C5.14205 18.1565 5.12657 18.1625 4.90902 18.1621C4.54636 18.1616 4.25572 17.9952 4.18986 17.7505C4.16276 17.6498 4.19749 17.4437 4.25722 17.3509ZM4.56095 19.5302C4.61436 19.2231 4.77901 19.1112 4.96722 19.2541C5.02748 19.2998 5.03775 19.3466 5.03358 19.556C5.02602 19.9333 5.0063 19.983 4.86402 19.983C4.7982 19.983 4.69424 19.973 4.63294 19.9607C4.50432 19.935 4.49755 19.8945 4.56095 19.5302ZM4.76525 15.2889C5.039 15.86 5.93123 16.0504 6.32877 15.6226C6.55149 15.3829 6.65255 14.9197 6.54062 14.6516C6.36689 14.2353 5.66957 13.9338 5.26902 14.1019C4.83446 14.2841 4.57582 14.8937 4.76525 15.2889ZM4.98269 29.9782C5.05811 30.2264 5.2671 30.4735 5.46642 30.5502C5.52526 30.5729 5.67435 30.5911 5.79776 30.5908C6.23967 30.5895 6.68097 30.2899 6.78926 29.9175C6.85419 29.6941 6.83112 29.5282 6.70122 29.2845C6.57153 29.0412 6.3568 28.9071 6.09682 28.9071H5.90323L5.92552 29.0187C5.93779 29.08 5.94781 29.1603 5.94781 29.1971C5.94781 29.2479 5.97398 29.2641 6.05592 29.2641C6.3665 29.2641 6.56626 29.4986 6.48553 29.7684C6.38226 30.1134 5.72469 30.367 5.4537 30.1663C5.40185 30.128 5.33791 30.0299 5.31156 29.9483C5.26785 29.8129 5.27038 29.7862 5.34098 29.6402L5.41825 29.4804L5.32123 29.3531L5.2242 29.2258L5.1357 29.3074C4.97067 29.4595 4.90827 29.7333 4.98269 29.9782ZM5.05864 14.7469C5.12293 14.5765 5.26671 14.455 5.43366 14.4299C5.7728 14.379 6.2203 14.6525 6.25717 14.9332C6.31198 15.3509 5.93911 15.5924 5.48639 15.4325C5.10999 15.2995 4.94803 15.0399 5.05864 14.7469ZM6.16703 13.8352C6.60116 14.0565 6.9601 14.2332 6.9647 14.2278C7.01586 14.1677 7.41377 13.3526 7.44205 13.25C7.52381 12.9536 7.31026 12.6377 7.00488 12.6032C6.91613 12.5932 6.80456 12.5948 6.75695 12.6068C6.62484 12.64 6.47208 12.8182 6.32211 13.114C6.2474 13.2613 6.17655 13.3879 6.16461 13.3952C6.1359 13.413 5.85075 13.2813 5.82393 13.2379C5.81241 13.2192 5.89172 13.0268 6.00019 12.8102C6.10866 12.5937 6.19741 12.3941 6.19741 12.3667C6.19741 12.3046 5.99088 12.2143 5.94984 12.2585C5.90826 12.3033 5.37725 13.364 5.37749 13.4018C5.3776 13.4188 5.7329 13.6138 6.16703 13.8352ZM5.76745 31.5044L5.87695 31.6557H6.53637C6.89909 31.6557 7.19569 31.6678 7.19551 31.6825C7.19537 31.6972 7.00681 31.8168 6.77653 31.9481C6.18839 32.2836 6.21239 32.2618 6.2821 32.3967C6.31369 32.4579 6.35627 32.5183 6.3767 32.5309C6.40284 32.5471 7.74817 31.8056 7.93887 31.6699C7.9455 31.6652 7.90788 31.5878 7.85525 31.4979L7.75958 31.3345L7.39748 31.3342C6.92437 31.334 6.44466 31.2958 6.46666 31.2601C6.47622 31.2446 6.68432 31.1172 6.92911 30.9771C7.17386 30.8369 7.37412 30.7087 7.37412 30.6921C7.37412 30.6393 7.25057 30.4425 7.2173 30.4423C7.17871 30.442 5.81922 31.2224 5.72452 31.2992C5.66037 31.3512 5.6619 31.3586 5.76745 31.5044ZM7.04428 12.1122C7.43164 12.3634 7.77449 12.5759 7.80622 12.5843C7.84306 12.5942 7.89137 12.5552 7.93994 12.4765C7.98173 12.4088 8.01596 12.344 8.01596 12.3325C8.01596 12.3211 7.90556 12.2402 7.7706 12.1528C7.63567 12.0654 7.51443 11.9764 7.50124 11.9551C7.48805 11.9337 7.52399 11.8478 7.58115 11.7642C7.7512 11.5153 7.80201 11.3923 7.80201 11.2292C7.80201 11.0013 7.69415 10.8628 7.41505 10.7322C7.2353 10.6482 7.07656 10.663 6.93118 10.7775C6.84474 10.8456 6.34004 11.5737 6.34004 11.6303C6.34004 11.6441 6.65693 11.8609 7.04428 12.1122ZM6.55723 13.3071C6.74027 12.9633 6.86728 12.8794 7.0241 12.9988C7.1443 13.0902 7.13771 13.213 6.99736 13.4971C6.86931 13.7564 6.86115 13.7648 6.77204 13.7309C6.65889 13.6878 6.44702 13.5588 6.44702 13.5329C6.44702 13.5226 6.49662 13.4209 6.55723 13.3071ZM6.78819 33.1662C6.83729 33.2385 6.88956 33.2978 6.90436 33.2978C6.91913 33.2978 7.05092 33.211 7.19726 33.105C7.34356 32.9989 7.47236 32.9178 7.48348 32.9246C7.50965 32.9406 7.87333 33.4693 7.87333 33.4914C7.87333 33.5006 7.75298 33.5923 7.6059 33.6951C7.45881 33.7979 7.33846 33.901 7.33846 33.9242C7.33846 33.9474 7.37355 34.0127 7.41645 34.0693C7.45931 34.126 7.49914 34.1787 7.50498 34.1866C7.51618 34.2017 7.65343 34.11 8.4706 33.541C8.75008 33.3464 8.97872 33.1769 8.97872 33.1644C8.97872 33.1195 8.81758 32.9056 8.7836 32.9053C8.76456 32.9052 8.61676 32.9959 8.45516 33.107C8.21564 33.2715 8.15175 33.3008 8.10942 33.2656C8.04267 33.2102 7.76636 32.7864 7.76636 32.7395C7.76636 32.7199 7.90275 32.6101 8.06945 32.4956C8.23615 32.3811 8.37254 32.2807 8.37254 32.2726C8.37254 32.2379 8.18295 32.0127 8.15371 32.0127C8.13606 32.0127 7.90931 32.1615 7.64983 32.3433C7.39031 32.5252 7.08515 32.737 6.97168 32.8142C6.68714 33.0076 6.68428 33.0131 6.78819 33.1662ZM6.91192 11.289C7.0282 11.1198 7.11214 11.0589 7.22914 11.0589C7.33333 11.0589 7.44551 11.184 7.44511 11.2998C7.44479 11.3935 7.25442 11.7728 7.2077 11.7728C7.15996 11.7728 6.80359 11.5171 6.80359 11.4829C6.80359 11.4629 6.85234 11.3757 6.91192 11.289ZM7.086 20.215C7.45856 17.0266 8.70466 14.1237 10.7406 11.7014C13.1284 8.86064 16.4049 6.94877 20.0683 6.25866C22.2563 5.84647 24.6383 5.91565 26.8307 6.45502C29.6914 7.15881 32.2445 8.60737 34.3494 10.7209C36.6859 13.0669 38.2443 16.1016 38.7852 19.3583C38.9489 20.344 38.9814 20.7773 38.9824 21.982C38.9832 23.1592 38.9614 23.4917 38.8198 24.4391C38.4387 26.9923 37.4281 29.426 35.8684 31.5486C34.968 32.774 33.7576 33.989 32.5664 34.8632C32.0128 35.2695 32.0366 35.253 31.6038 35.5311C29.7209 36.7412 27.5984 37.5319 25.2833 37.8857L25.1318 37.9089V37.5862C25.1318 37.1678 25.0822 36.9422 24.9232 36.6367C24.4416 35.7107 23.3753 35.3064 22.332 35.6539C22.052 35.7471 21.6172 36.0288 21.4487 36.2258C21.0602 36.6802 20.9978 37.311 21.3017 37.7129C21.349 37.7754 21.3877 37.8336 21.3877 37.8425C21.3877 37.8511 21.3406 37.8778 21.2831 37.9017C21.1517 37.956 20.7712 37.9114 19.8934 37.7386C17.4827 37.2635 15.3077 36.2879 13.3309 34.7949C11.7678 33.6144 10.3621 32.0612 9.32685 30.3707C7.96376 28.1448 7.19219 25.6676 7.00314 22.9101C6.96862 22.4067 7.01815 20.7958 7.086 20.215ZM8.05515 10.7376C8.30818 11.1597 8.52979 11.51 8.54762 11.5159C8.56541 11.5219 8.62471 11.468 8.67937 11.3963L8.77875 11.2658L8.68262 11.0946C8.62974 11.0005 8.58649 10.9044 8.58649 10.8812C8.58649 10.8401 8.76274 10.6026 8.9349 10.4117C9.01755 10.32 9.0234 10.319 9.18308 10.3671C9.27304 10.3942 9.37217 10.416 9.40337 10.4156C9.48225 10.4145 9.67715 10.1359 9.61411 10.1143C9.58822 10.1055 9.31836 10.0263 9.01438 9.93842C8.7104 9.85054 8.31948 9.73738 8.14568 9.68697C7.97189 9.63657 7.81763 9.59534 7.80287 9.59534C7.76115 9.59534 7.58764 9.86071 7.59156 9.91854C7.59349 9.94692 7.80208 10.3155 8.05515 10.7376ZM8.01617 34.7942L8.12047 34.9163L8.78549 34.8013C9.15123 34.738 9.45693 34.6927 9.46478 34.7005C9.47262 34.7083 9.28556 34.8854 9.04911 35.0939L8.61929 35.4731L8.73657 35.5971L8.85392 35.721L9.45993 35.1869C10.296 34.4498 10.2225 34.5446 10.079 34.3879L9.95881 34.2567L9.30242 34.3663C8.94139 34.4265 8.64072 34.4705 8.6342 34.464C8.62767 34.4574 8.80564 34.2928 9.02975 34.098C9.25386 33.9033 9.43835 33.726 9.43974 33.7042C9.44388 33.6392 9.29551 33.4717 9.24412 33.4833C9.18846 33.4959 7.90831 34.6147 7.91045 34.6489C7.91123 34.6617 7.9588 34.727 8.01617 34.7942ZM8.07109 10.0237C8.13367 10.0237 8.6578 10.2122 8.6578 10.2347C8.6578 10.3003 8.39436 10.5953 8.36341 10.5643C8.3172 10.518 8.0544 10.0832 8.05287 10.0505C8.05219 10.0357 8.06039 10.0237 8.07109 10.0237ZM8.68237 8.99743C8.70351 9.07835 8.74784 9.07621 8.8915 8.98729C8.99844 8.92114 9.00828 8.9003 9.00268 8.75219C8.99748 8.61437 9.01174 8.5766 9.09661 8.50353C9.21549 8.40112 9.3726 8.39198 9.45458 8.48265C9.53124 8.56743 9.53021 8.76815 9.45269 8.85393C9.40765 8.90372 9.4013 8.93639 9.42833 8.97929C9.50461 9.1003 9.5649 9.10705 9.70721 9.01035C9.86564 8.90272 9.93032 8.89541 10.0405 8.97269C10.1688 9.06264 10.1485 9.25244 9.99412 9.40701C9.88033 9.52092 9.85512 9.53066 9.72754 9.51024C9.59047 9.48829 9.58459 9.49172 9.51127 9.63561C9.42559 9.80374 9.44071 9.82662 9.66214 9.86406C9.75396 9.87959 9.83583 9.86674 9.93029 9.82194C10.1048 9.7392 10.3597 9.48443 10.4253 9.32726C10.5912 8.92971 10.3392 8.55986 9.9351 8.6078L9.7632 8.62818V8.48875C9.7632 8.21628 9.61126 8.0604 9.34568 8.0604C9.02715 8.0604 8.6537 8.44924 8.66194 8.7724C8.66422 8.86182 8.67342 8.96309 8.68237 8.99743ZM9.49569 36.3514L9.69177 36.5189L10.1973 36.1758C10.4753 35.9873 10.7067 35.8367 10.7114 35.8413C10.7162 35.8463 10.5979 36.0976 10.4486 36.4L10.1772 36.9497L10.3682 37.1228C10.4733 37.2178 10.5693 37.2956 10.5815 37.2956C10.5938 37.2956 10.8642 36.9979 11.1823 36.6338C11.8003 35.9267 11.8092 35.9088 11.6024 35.7982C11.5519 35.771 11.5054 35.7557 11.4992 35.7639C11.44 35.8413 10.6808 36.6888 10.6705 36.6888C10.645 36.6888 10.7035 36.5646 10.9821 36.0255L11.2604 35.4873L11.1804 35.4171C10.9948 35.2543 10.9955 35.2544 10.8472 35.3612C10.4627 35.6379 9.89916 36.0159 9.88793 36.0048C9.8809 35.9977 10.0586 35.7803 10.2827 35.5219C10.5069 35.2633 10.6903 35.0375 10.6903 35.0199C10.6903 34.9606 10.516 34.8235 10.4654 34.843C10.4108 34.864 9.29964 36.1183 9.29964 36.159C9.29964 36.1726 9.38786 36.259 9.49569 36.3514ZM10.028 7.89091C10.1104 8.12187 10.3741 8.42693 10.5942 8.54569C11.1178 8.8283 11.8484 8.3576 11.846 7.73913C11.8451 7.50232 11.7462 7.28943 11.5334 7.06686C11.2586 6.77929 10.9471 6.68409 10.6282 6.7901C10.1517 6.94856 9.87377 7.45827 10.028 7.89091ZM10.3942 25.3156C10.4985 25.3368 11.5212 25.4598 12.6515 25.5871C13.8489 25.722 16.2202 26.0066 18.7668 26.3211C19.6696 26.4326 22.3635 26.8068 22.3827 26.8234C22.3907 26.8303 22.4069 26.8954 22.4187 26.9681C22.4386 27.0908 22.4554 27.1063 22.6525 27.1827C22.9176 27.2855 22.9956 27.2855 23.2603 27.1829C23.459 27.1058 23.4739 27.0919 23.5004 26.9576L23.5287 26.8144L23.8577 26.7691C24.0387 26.7442 24.7404 26.6464 25.417 26.5519C26.0936 26.4574 26.7916 26.3623 26.9681 26.3406C27.8484 26.2322 29.3884 26.0452 29.9277 25.9812C30.2611 25.9417 30.9912 25.8544 31.5502 25.7872C32.1091 25.7201 32.8713 25.631 33.2439 25.5891C34.6676 25.4293 35.1768 25.3683 35.3923 25.332L35.6151 25.2944V25.1553C35.6151 25.0277 35.607 25.0161 35.5171 25.0147C35.4631 25.0138 32.7433 25.3466 29.4731 25.754L23.5272 26.4949V26.6062C23.5272 26.7052 23.5069 26.7269 23.3428 26.8038C23.2159 26.8634 23.0957 26.8903 22.9566 26.8903C22.8175 26.8903 22.6974 26.8634 22.5704 26.8038C22.406 26.7268 22.3861 26.7053 22.3861 26.6055V26.4937L16.4223 25.7526C13.1422 25.345 10.4264 25.0085 10.3872 25.0049C10.3278 24.9995 10.3141 25.023 10.3051 25.1468C10.2951 25.2843 10.3017 25.2968 10.3942 25.3156ZM10.3529 23.4201C10.5386 24.3547 11.1578 24.7864 12.4908 24.9106C12.8936 24.9481 13.4061 24.9363 15.5576 24.8397C16.8819 24.7803 19.3787 24.7563 19.7187 24.7997C20.5147 24.9012 21.5312 25.3283 22.4975 25.9672C22.9506 26.2667 23.0297 26.2699 23.4341 26.0041C24.6325 25.2164 25.6452 24.8237 26.5937 24.779C27.1166 24.7544 30.3691 24.8216 31.247 24.8752C32.2805 24.9382 33.5491 24.9325 33.9277 24.863C34.8716 24.6898 35.3411 24.3553 35.5632 23.6979C35.6453 23.4551 35.7229 22.8744 35.6732 22.8744C35.6604 22.8744 35.4454 22.9766 35.1957 23.1015C34.0034 23.6976 33.4226 23.9099 32.7447 23.997C31.5919 24.1452 30.5599 24.1496 29.0006 24.0129C27.2612 23.8603 26.9612 23.8624 25.9781 24.0341C25.0817 24.1906 24.2178 24.6104 23.3257 25.3232L22.9994 25.5838L22.7017 25.3487C21.7643 24.6085 20.8993 24.1869 20.0073 24.0353C18.9583 23.857 18.7363 23.8555 16.9661 24.0147C15.4384 24.152 14.2755 24.1424 13.1681 23.9834C12.5014 23.8876 11.8569 23.6463 10.7658 23.0837C10.5425 22.9686 10.346 22.8744 10.3289 22.8744C10.285 22.8744 10.2965 23.1363 10.3529 23.4201ZM10.391 7.36135C10.5053 7.12012 10.8372 7.02238 11.0647 7.16295C11.4928 7.42736 11.6227 7.86717 11.3507 8.13108C11.1132 8.3615 10.742 8.29324 10.4992 7.97462C10.3239 7.74452 10.2929 7.56843 10.391 7.36135ZM10.7042 20.7148C11.2109 22.1023 12.0416 22.8465 13.4003 23.1302C13.6567 23.1838 13.9402 23.2058 14.5664 23.2207C15.4288 23.2411 15.8553 23.2138 16.6095 23.0898C17.3754 22.9639 17.8026 22.9301 18.642 22.929C19.7711 22.9276 20.3995 23.0364 21.2807 23.3858C21.5055 23.4749 21.6942 23.5432 21.6999 23.5375C21.7056 23.5318 21.583 23.4434 21.4274 23.3411C20.8642 22.971 19.9412 22.6527 19.0252 22.5128C18.5545 22.441 18.3771 22.435 16.6095 22.4316C14.4856 22.4274 14.5351 22.4323 14.0243 22.174C13.5675 21.943 13.1345 21.5618 12.8068 21.1022L12.6498 20.8818L12.1068 20.8697C11.5673 20.8576 11.5622 20.8568 11.2965 20.7288C11.1494 20.658 10.9412 20.5335 10.8339 20.4522C10.536 20.2264 10.5302 20.2383 10.7042 20.7148ZM10.9824 28.8893C11.0445 28.9993 11.8018 29.9775 12.2284 30.4988C12.5853 30.9347 12.6283 30.9744 12.8718 31.0926C13.2251 31.2639 13.7385 31.4521 14.1538 31.5623C14.6401 31.6915 14.8731 31.7852 14.9723 31.8915C15.1474 32.0792 15.2342 32.1024 15.7359 32.096C15.9908 32.0928 16.408 32.0645 16.663 32.0331C18.5415 31.8018 18.824 31.7927 19.1799 31.9521C19.4357 32.0666 19.6735 32.2836 19.8498 32.563C19.9857 32.7783 20.0067 32.7954 20.2239 32.8678C20.8752 33.0848 21.5597 33.0077 22.7007 32.5888L22.9976 32.4798L23.5743 32.6715C23.8916 32.7769 24.2855 32.8901 24.4497 32.9231C24.9787 33.0293 25.5564 32.9872 25.953 32.8136C26.0406 32.7753 26.1053 32.7077 26.1662 32.5909C26.2865 32.3602 26.5855 32.0744 26.8252 31.9609C27.191 31.7876 27.4437 31.7962 29.5309 32.0524C29.9091 32.0989 30.639 32.1125 30.7702 32.0756C30.8217 32.0611 30.9421 31.9842 31.0377 31.9048C31.165 31.799 31.2924 31.7364 31.5145 31.6706C32.6247 31.3418 33.2637 31.0924 33.4501 30.9152C33.75 30.6301 35.0803 28.891 35.0803 28.784C35.0803 28.6826 34.9823 28.593 34.8404 28.5646L34.7301 28.5425L34.8339 28.3787C34.8909 28.2886 34.9377 28.1864 34.9377 28.1516C34.9377 28.0494 34.772 27.9837 34.6074 28.0208C34.3097 28.0877 34.1514 28.2221 33.9367 28.5901C33.7296 28.9452 33.6415 29.0045 33.1726 29.1043C33.0196 29.1369 32.7846 29.3966 32.7294 29.5943L32.6836 29.758L32.5403 29.7073C32.3866 29.653 31.7832 29.636 31.8655 29.6882C31.9146 29.7194 31.5961 29.7429 30.5517 29.7854C29.9116 29.8114 29.7762 29.78 29.3268 29.5017C28.9594 29.2742 28.8178 29.21 28.5371 29.1441C28.1691 29.0576 27.7092 29.0148 27.1432 29.0145C26.4139 29.014 26.0041 29.1317 25.4705 29.4946C25.0585 29.7748 24.793 30.0583 23.5467 31.5486C23.2758 31.8726 23.0371 32.1376 23.0161 32.1376C22.9952 32.1376 22.6754 31.7762 22.3054 31.3345C21.1372 29.9396 20.8781 29.6761 20.3893 29.3855C20.2422 29.2981 19.9935 29.1828 19.8366 29.1293C19.5586 29.0345 19.5311 29.0321 18.7668 29.035C17.6585 29.0392 17.309 29.1193 16.6839 29.5122C16.2538 29.7825 16.1345 29.8102 15.5041 29.7861C14.5081 29.7479 14.1274 29.7191 14.203 29.6876C14.2862 29.6529 13.5701 29.6727 13.436 29.7088C13.3544 29.7308 13.3414 29.7176 13.2835 29.5536C13.1806 29.2622 13.0392 29.1425 12.7123 29.0702C12.4067 29.0025 12.253 28.8882 12.1201 28.6295C11.9913 28.3788 11.8435 28.2109 11.6681 28.1161C11.4297 27.9872 11.238 27.9713 11.1373 28.072C11.0691 28.1403 11.0907 28.2346 11.2115 28.396C11.2582 28.4585 11.2965 28.5162 11.2965 28.5243C11.2965 28.5323 11.2325 28.558 11.1544 28.5814C11.0276 28.6195 10.9379 28.7066 10.941 28.7887C10.9416 28.8048 10.9602 28.85 10.9824 28.8893ZM11.1435 27.5633C11.1572 27.6165 11.1823 27.6252 11.2706 27.6076C11.4998 27.5617 11.6018 27.6128 11.7881 27.8666C12.1837 28.4058 12.5052 28.6572 12.8747 28.7164C13.052 28.7448 13.1996 28.8926 13.2737 29.116L13.3313 29.2896L13.9096 29.2858C14.3541 29.2828 14.6157 29.3015 15.0406 29.3666C15.8001 29.4828 15.9587 29.4673 16.6315 29.2106C17.9219 28.7181 18.6198 28.5542 19.2448 28.5969C19.7817 28.6336 20.1512 28.7961 20.728 29.2494C21.1497 29.5809 21.3439 29.7766 22.0595 30.592C22.4162 30.9984 22.7256 31.3417 22.747 31.355C22.7972 31.386 22.1466 30.5112 21.7203 29.9744C21.0243 29.0978 20.2976 28.5536 19.5769 28.3691C19.2172 28.277 18.6265 28.2773 18.2141 28.3698C17.8585 28.4495 17.3413 28.6311 16.5738 28.9454L16.0211 29.1718L15.5754 29.1687C15.2498 29.1665 15.0011 29.1404 14.6525 29.0721C14.1144 28.9666 13.8177 28.9554 13.5681 29.0312C13.4109 29.0789 13.3956 29.0782 13.3775 29.0219C13.2736 28.697 13.1777 28.5802 12.9617 28.5157C12.7372 28.4486 12.3957 28.2802 12.2945 28.1867C12.2453 28.1412 12.0811 27.948 11.9296 27.7575C11.6295 27.3799 11.5742 27.3362 11.3969 27.337C11.1403 27.338 11.0958 27.3778 11.1435 27.5633ZM11.9096 6.87478C12.1901 7.26976 12.4315 7.5937 12.4461 7.59463C12.477 7.59663 13.0302 7.209 13.2486 7.0323C13.514 6.81752 13.5413 6.48097 13.3119 6.25134C13.2122 6.15157 13.1676 6.13279 13.0301 6.13279H12.8668L12.8859 5.98108C12.9102 5.78736 12.8094 5.61501 12.6271 5.53877C12.4341 5.45802 12.3104 5.499 11.8986 5.78015C11.3194 6.17548 11.3181 6.04209 11.9096 6.87478ZM12.1169 5.98983C12.4186 5.78471 12.5802 5.8052 12.5802 6.04862C12.5802 6.14775 12.5499 6.18762 12.3689 6.32705C12.2528 6.41654 12.1418 6.48975 12.1224 6.48975C12.0729 6.48975 11.8653 6.20004 11.8883 6.16292C11.8986 6.14618 12.0015 6.06825 12.1169 5.98983ZM12.5356 6.58271C12.6743 6.4879 12.8168 6.41822 12.8718 6.41829C13.0372 6.41843 13.1541 6.59981 13.0792 6.73991C13.0386 6.81595 12.6333 7.13229 12.5766 7.13229C12.545 7.13229 12.2974 6.81306 12.2958 6.77019C12.2953 6.75755 12.4032 6.6732 12.5356 6.58271ZM13.2188 30.0952C13.3268 29.9459 13.5393 29.8236 13.7569 29.7854C13.8492 29.7692 13.8069 29.8002 13.5941 29.9045C13.2753 30.0608 13.1935 30.1618 13.2627 30.3139C13.3143 30.4273 13.5179 30.4994 13.9173 30.5459C14.0938 30.5664 14.4388 30.609 14.684 30.6405C15.872 30.7931 15.5967 30.8039 14.2204 30.6586C13.1275 30.5432 12.962 30.4501 13.2188 30.0952ZM13.2619 18.4838C13.3154 18.9495 13.4339 19.4575 13.5442 19.6936C14.0463 20.7676 15.2695 21.4945 17.4831 22.0343C17.6988 22.0869 18.3086 22.2166 18.8381 22.3225C19.8652 22.5279 20.3165 22.6538 20.8188 22.8752C21.1914 23.0393 21.6987 23.3471 21.9246 23.5462C22.0811 23.6841 22.2929 23.7596 22.3345 23.6924C22.366 23.6413 22.0058 23.2813 21.6729 23.0312C21.236 22.7028 20.4701 22.3364 19.11 21.8048C17.2313 21.0705 16.4408 20.6495 15.9565 20.1254C15.5879 19.7263 15.1871 19.084 14.9731 18.5495L14.8923 18.3475H14.5588C14.3629 18.3475 14.1471 18.3246 14.0357 18.2921C13.8251 18.2307 13.4708 18.0295 13.3201 17.8857L13.222 17.7922L13.2266 18.0041C13.2292 18.1206 13.2451 18.3365 13.2619 18.4838ZM13.5289 5.68659C13.5928 6.11851 13.6552 6.53955 13.6673 6.62219L13.6895 6.77247L13.8517 6.69358L14.0139 6.61469L13.9908 6.37963L13.9676 6.14457L14.1386 6.05358C14.2327 6.00357 14.376 5.92518 14.4572 5.87942L14.6049 5.79621L14.7515 5.92879C14.8322 6.00171 14.9184 6.0614 14.9432 6.0614C15.0159 6.0614 15.2644 5.87817 15.2313 5.84904C15.2146 5.8344 14.9603 5.63279 14.6661 5.40101C14.372 5.16924 14.0452 4.9098 13.94 4.82445L13.7487 4.66927L13.6081 4.74834C13.5308 4.79185 13.4552 4.84408 13.4401 4.86435C13.4249 4.88467 13.4649 5.25466 13.5289 5.68659ZM13.813 5.16899C13.8555 5.16899 14.2908 5.54555 14.2913 5.58274C14.2918 5.62883 13.9396 5.82787 13.91 5.79821C13.8904 5.77865 13.8073 5.36025 13.7973 5.23146C13.7947 5.19708 13.8017 5.16899 13.813 5.16899ZM14.8637 4.22303C14.8814 4.2623 15.0263 4.62886 15.1856 5.03762C15.427 5.65671 15.4852 5.77679 15.5343 5.75684C15.5667 5.74363 15.6374 5.71682 15.6913 5.69729C15.7452 5.67773 15.7894 5.64764 15.7894 5.6304C15.7894 5.61312 15.7317 5.44488 15.6612 5.25648C15.5907 5.06811 15.5388 4.90812 15.546 4.90098C15.5702 4.87674 16.1263 4.66924 16.167 4.66924C16.1893 4.66924 16.2359 4.74556 16.2705 4.8388C16.421 5.2442 16.476 5.34747 16.5409 5.34747C16.6492 5.34747 16.7878 5.26837 16.7878 5.20654C16.7878 5.17463 16.6594 4.82337 16.5025 4.426C16.3456 4.02863 16.2173 3.68983 16.2173 3.67313C16.2173 3.58892 16.1217 3.57439 15.9775 3.63668L15.8268 3.70172L15.912 3.92668C15.9588 4.0504 16.015 4.19804 16.0369 4.25477C16.0587 4.31145 16.0722 4.36089 16.0667 4.36457C16.0284 4.39045 15.4723 4.59784 15.4413 4.59784C15.4198 4.59784 15.3513 4.4653 15.2891 4.30335C15.2268 4.14139 15.1691 3.99772 15.1608 3.98412C15.1389 3.94799 14.8262 4.07111 14.829 4.11473C14.8303 4.13504 14.8459 4.18377 14.8637 4.22303ZM15.6378 30.7744C15.6721 30.7834 15.6441 30.7907 15.5754 30.7907C15.5068 30.7907 15.4787 30.7834 15.513 30.7744C15.5473 30.7654 15.6035 30.7654 15.6378 30.7744ZM16.0547 30.8487C16.325 30.9047 16.5979 31.0009 16.5689 31.0301C16.5601 31.0388 16.4292 31.0067 16.2781 30.9586C16.1269 30.9106 15.9351 30.8603 15.8518 30.847C15.7685 30.8337 15.7201 30.8162 15.7442 30.8082C15.7683 30.8001 15.908 30.8184 16.0547 30.8487ZM16.6968 18.3231C16.8285 19.1669 17.1563 19.7816 17.8423 20.4711C18.4561 21.0883 18.8588 21.3243 19.9613 21.7135C21.3915 22.2183 21.9698 22.5939 22.4062 23.3018C22.5261 23.4962 22.6162 23.5602 22.6802 23.4962C22.7202 23.4561 22.5743 23.0211 22.462 22.8459C22.1965 22.4317 21.7798 22.1333 20.7458 21.6168C19.79 21.1393 19.4525 20.8776 18.8234 20.1258C18.563 19.8145 18.4702 19.6443 18.3466 19.2512C18.2479 18.9374 18.1074 18.1669 18.1066 17.9349C18.1063 17.8539 18.0927 17.7666 18.0764 17.7409C18.0601 17.7151 17.9279 17.6698 17.7827 17.6402C17.4138 17.565 17.1985 17.4579 16.9016 17.2021L16.6452 16.9811L16.6487 17.5093C16.6506 17.7998 16.6723 18.1661 16.6968 18.3231ZM16.8969 4.18734C17.0131 4.58 17.1183 4.94542 17.1307 4.99943C17.1556 5.1078 17.202 5.11648 17.391 5.04808L17.5127 5.004L17.6963 4.34733C17.7972 3.98615 17.8891 3.70601 17.9005 3.72482C17.9119 3.74359 17.9562 3.87945 17.999 4.0267C18.0418 4.17395 18.1083 4.40283 18.147 4.53538C18.2037 4.73031 18.2309 4.77633 18.2893 4.77633C18.3486 4.77633 18.4796 4.72671 18.5286 4.68573C18.5348 4.68048 18.4403 4.3333 18.3186 3.91419C18.1968 3.49505 18.0895 3.11599 18.0802 3.07183C18.0611 2.9818 17.9711 2.96802 17.7977 3.02856C17.6952 3.06433 17.6855 3.08789 17.5204 3.70679C17.4263 4.05944 17.3375 4.34797 17.3232 4.34797C17.3089 4.34797 17.2284 4.10702 17.1444 3.81252C17.0604 3.51804 16.9837 3.27708 16.9741 3.27708C16.8754 3.27708 16.6813 3.37021 16.6833 3.41658C16.6847 3.44785 16.7808 3.79467 16.8969 4.18734ZM18.1937 13.4506C18.3302 14.0935 18.6222 14.5592 19.152 14.979C19.4635 15.2257 19.8244 15.4373 20.5943 15.8245C21.3876 16.2236 21.6583 16.3945 21.9253 16.6651C22.1896 16.933 22.2304 17.074 22.1763 17.5333C22.0906 18.2606 22.1462 18.8092 22.335 19.0988C22.4242 19.2357 22.6481 19.3762 22.7769 19.3762C22.8429 19.3762 22.8497 19.3986 22.8505 19.6171C22.8509 19.7496 22.8746 20.7175 22.9031 21.7678C22.9316 22.8182 22.9553 23.7298 22.9558 23.7936C22.9562 23.8574 22.9726 23.9096 22.9922 23.9096C23.0156 23.9096 23.0279 23.136 23.0279 21.6603V19.411L23.2151 19.3274C23.6897 19.1155 23.8549 18.668 23.7773 17.8043C23.7571 17.5792 23.7304 17.281 23.7182 17.1417L23.6959 16.8883L23.8194 16.794C23.8874 16.7421 24.1182 16.6173 24.3323 16.5166C24.5465 16.416 24.8991 16.2492 25.116 16.1461C26.6165 15.4325 27.475 14.4887 27.7537 13.2463C27.8322 12.8968 27.8423 12.7764 27.8337 12.3004L27.8239 11.755L27.6813 11.6836C27.5606 11.6233 27.4672 11.6123 27.0751 11.6122C26.681 11.6122 26.5741 11.6249 26.3619 11.6969C25.8524 11.8699 25.386 12.162 24.9299 12.5939L24.6865 12.8244L24.6623 12.6645C24.6491 12.5766 24.6186 12.3681 24.5947 12.2012C24.5451 11.8554 24.3889 11.269 24.2761 11.0057C24.169 10.7557 23.8566 10.2995 23.5966 10.0135C23.3711 9.76536 23.0119 9.45256 22.9525 9.45256C22.8554 9.45256 22.2956 10.0812 22.0147 10.5056C21.8074 10.8188 21.6335 11.1712 21.5223 11.5034C21.428 11.7848 21.4119 11.8918 21.3964 12.335C21.3867 12.6148 21.3679 12.8437 21.3548 12.8437C21.3416 12.8437 21.2674 12.7777 21.1899 12.697C20.9842 12.4828 20.5233 12.1148 20.302 11.9881C19.9112 11.7643 19.522 11.6842 18.6668 11.6517L18.2458 11.6357L18.2085 11.7311C18.1472 11.8875 18.1361 13.179 18.1937 13.4506ZM18.6838 42.1503C18.8164 41.7105 19.3032 41.3061 19.9097 41.1319C20.0264 41.0984 20.1264 41.0669 20.1319 41.0623C20.1375 41.0573 20.1667 40.8867 20.1968 40.6828C20.3199 39.8504 20.6235 39.2896 21.2179 38.797C21.5211 38.5457 21.7857 38.3993 22.083 38.319C22.3053 38.2591 22.9676 38.1891 23.32 38.1884C23.4316 38.1884 23.532 38.1734 23.5431 38.1555C23.591 38.0781 23.6037 37.689 23.5645 37.5002C23.5337 37.352 23.4884 37.2596 23.4003 37.166C23.2839 37.0425 23.27 37.0375 23.084 37.0532C22.8889 37.0693 22.7827 37.1243 22.4963 37.3574C22.3431 37.4823 22.0477 37.4984 21.9265 37.3884C21.7383 37.2182 21.7687 36.9197 21.9996 36.6688C22.1826 36.4703 22.3948 36.3464 22.677 36.2743C23.232 36.1319 23.8349 36.3133 24.1523 36.718C24.437 37.0811 24.5035 37.4484 24.4018 38.0977C24.3405 38.4886 24.3406 38.4889 24.4155 38.5439C24.4567 38.5739 24.5986 38.6774 24.7309 38.7734C25.2248 39.1322 25.6231 39.7365 25.7785 40.363C25.8407 40.6136 25.8501 40.7353 25.8352 41.0948C25.8142 41.6038 25.7565 41.838 25.5411 42.2874C25.3425 42.7022 25.3364 42.8175 25.5057 42.9664C25.7596 43.1895 26.1016 43.1855 26.3298 42.9571C26.4508 42.8361 26.4462 42.855 26.5148 42.2114C26.5415 41.9615 26.5651 41.8797 26.6308 41.8098C26.7217 41.713 26.9222 41.6431 27.0154 41.6759C27.2973 41.7752 27.4361 42.2292 27.3276 42.6972C27.21 43.2041 26.9352 43.59 26.5289 43.8188C26.2999 43.948 26.2775 43.953 25.9519 43.953C25.6474 43.953 25.5897 43.9419 25.3814 43.8431C25.2539 43.7827 25.05 43.6499 24.9283 43.5486C24.8066 43.4472 24.6915 43.364 24.6725 43.364C24.6535 43.364 24.4557 43.4532 24.2328 43.5621C23.7356 43.8052 23.3678 43.8823 22.8497 43.8523C22.1538 43.812 21.5942 43.5714 21.0595 43.082C20.8315 42.8735 20.7156 42.7136 20.4916 42.2981C20.4008 42.1296 20.3012 41.9758 20.2701 41.9561C20.1748 41.8962 19.8327 42.0361 19.6564 42.2078C19.4796 42.3799 19.432 42.5398 19.4981 42.7404C19.5777 42.9821 19.7214 43.102 20.0514 43.2027C20.4097 43.3122 20.4606 43.3686 20.4606 43.656V43.8609L20.2961 43.9573C19.9446 44.1636 19.5137 44.0522 19.1018 43.6489C18.6931 43.2484 18.5295 42.6622 18.6838 42.1503ZM18.8083 13.9204C19.565 14.7812 19.9684 15.0741 21.131 15.607C21.8202 15.9229 22.0765 16.1065 22.3067 16.4497C22.3896 16.5733 22.4574 16.6941 22.4574 16.7182C22.4574 16.7424 22.3375 16.6388 22.191 16.4881C21.8992 16.1879 21.5467 15.9585 21.0846 15.7681C20.6555 15.5914 19.874 15.1831 19.5426 14.9627C19.231 14.7553 18.9878 14.491 18.8267 14.1845C18.7227 13.9866 18.6456 13.7965 18.6618 13.7776C18.6675 13.7709 18.7334 13.8352 18.8083 13.9204ZM18.6845 3.35715C18.7274 3.51736 18.8834 3.65828 19.0531 3.69016C19.1635 3.71086 19.231 3.77683 19.1418 3.77683C19.1079 3.77683 18.8188 4.35136 18.7673 4.52113C18.7436 4.59931 18.7495 4.60359 18.8524 4.5836C18.9132 4.57182 19.0088 4.55333 19.0649 4.54259C19.1543 4.52538 19.1877 4.47715 19.3382 4.14775C19.5174 3.75577 19.5921 3.66974 19.7529 3.66974C19.8648 3.66974 19.8693 3.68055 19.9305 4.09274L19.9748 4.39084L20.1018 4.36978C20.1716 4.35821 20.2488 4.34858 20.2733 4.34836C20.3396 4.34779 20.3319 4.26294 20.1849 3.37139L20.0505 2.55541L19.8365 2.57765C19.4979 2.61285 18.9651 2.73196 18.8713 2.7935C18.6944 2.90959 18.6226 3.12616 18.6845 3.35715ZM19.0985 3.05141C19.1589 2.99676 19.6951 2.89156 19.7309 2.9274C19.7399 2.9364 19.7573 3.04074 19.7697 3.15932L19.7922 3.37486L19.547 3.40584C19.2318 3.44564 19.1344 3.43622 19.0791 3.36051C19.0143 3.27191 19.024 3.11895 19.0985 3.05141ZM21.4262 41.3614C21.5158 41.818 21.8923 42.3106 22.3085 42.5159C22.5049 42.6126 22.5876 42.6315 22.8638 42.6437C23.6054 42.6754 24.1603 42.3495 24.4799 41.6948C24.6122 41.4239 24.6147 41.4111 24.6147 41.0063C24.6147 40.6 24.6127 40.5897 24.4779 40.317C24.31 39.9768 24.0465 39.7066 23.7313 39.5513C23.133 39.2564 22.381 39.3681 21.8803 39.8261C21.4779 40.1942 21.3092 40.7646 21.4262 41.3614ZM21.4144 3.48419L21.4249 4.17316L21.6084 4.16242L21.7919 4.15164L22.1284 3.58967C22.3135 3.28058 22.4793 3.03656 22.4968 3.04741C22.5144 3.05823 22.5287 3.3071 22.5287 3.60045V4.13379H22.6892H22.8496V3.24349C22.8496 2.68673 22.8362 2.34491 22.8139 2.33106C22.7942 2.31889 22.7072 2.3196 22.6205 2.33259L22.4629 2.35626L22.166 2.85915C22.0027 3.13573 21.8571 3.39213 21.8426 3.42894C21.7766 3.59595 21.7442 3.42205 21.7442 2.90017V2.34898H21.5659H21.3876L21.3957 2.57208C21.4002 2.69477 21.4086 3.10524 21.4144 3.48419ZM23.3328 31.3166C23.7694 30.833 24.2251 30.3169 24.3729 30.1386C25.0068 29.3741 25.9455 28.712 26.5224 28.6224C27.2104 28.5155 27.8694 28.6425 29.1611 29.131L29.9277 29.4208L30.32 29.4211C30.5467 29.4212 30.9455 29.3865 31.2649 29.339C31.6777 29.2776 31.9289 29.26 32.2575 29.2694L32.6976 29.2819L32.7641 29.1074C32.8551 28.8687 32.9526 28.7763 33.1844 28.7088C33.6338 28.5781 33.7753 28.4696 34.182 27.9433C34.3109 27.7764 34.4208 27.6337 34.4262 27.6262C34.4316 27.6187 34.5369 27.6107 34.6601 27.6084C34.8796 27.6043 34.8844 27.6021 34.8959 27.501C34.9026 27.4423 34.8872 27.3848 34.8603 27.3677C34.7944 27.3258 34.5191 27.3289 34.438 27.3724C34.4011 27.3922 34.249 27.5675 34.1002 27.7619C33.7423 28.2293 33.6155 28.321 33.0369 28.531C32.8498 28.5989 32.7171 28.7596 32.6735 28.971C32.6555 29.0582 32.634 29.0839 32.59 29.0708C32.1914 28.9521 31.8952 28.9562 31.2827 29.089C31.0273 29.1443 30.7946 29.1672 30.4626 29.1694L29.999 29.1724L29.4107 28.929C28.2166 28.4351 27.7286 28.3019 27.1108 28.3017C26.6344 28.3014 26.3046 28.3784 25.8984 28.5846C25.1907 28.9438 24.7033 29.4273 23.7174 30.7486C23.2723 31.345 23.168 31.4992 23.3328 31.3166ZM23.376 23.5169C23.4254 23.5169 23.4916 23.4473 23.5882 23.2938C23.7749 22.9968 24.06 22.6906 24.3261 22.5011C24.7111 22.2268 25.1049 22.0499 26.322 21.6043C27.1963 21.2843 27.6651 20.9859 28.2397 20.3838C28.7493 19.8497 29.0487 19.3289 29.219 18.6801C29.2993 18.3743 29.3153 18.2259 29.3305 17.6458L29.3483 16.9685L29.1268 17.1738C29.005 17.2867 28.8305 17.4169 28.739 17.4632C28.5628 17.5524 28.216 17.6552 28.038 17.671C27.9182 17.6818 27.9349 17.6241 27.8236 18.4124C27.7409 18.9979 27.6086 19.4468 27.4239 19.7688C27.3009 19.9831 26.8943 20.4625 26.6084 20.7302C26.2528 21.0633 25.9161 21.2834 25.2743 21.6025C24.4258 22.0244 24.1168 22.2161 23.8235 22.5027C23.5471 22.7726 23.3733 23.0751 23.3279 23.3652C23.3065 23.5014 23.3115 23.5169 23.376 23.5169ZM23.4381 10.1308C23.448 10.1308 23.5539 10.2628 23.6733 10.4241C24.0298 10.9053 24.1765 11.2434 24.2895 11.8442C24.3609 12.2237 24.4314 12.9016 24.4063 12.967C24.357 13.0956 24.3165 13.0021 24.2948 12.7099C24.2377 11.9441 24.0571 11.3709 23.6057 10.5234C23.4276 10.1891 23.4027 10.1308 23.4381 10.1308ZM23.6283 16.4623C23.8575 16.1075 24.176 15.8753 24.793 15.6135C25.8228 15.1765 26.4101 14.7518 27.142 13.9146C27.3394 13.6889 27.3396 13.7494 27.1426 14.1288C26.9852 14.432 26.7595 14.7039 26.5114 14.8895C26.2624 15.0758 25.6252 15.4252 25.1317 15.6461C24.9258 15.7382 24.6851 15.8462 24.5968 15.886C24.3088 16.0159 23.9775 16.2532 23.7321 16.5052C23.5998 16.6412 23.4915 16.7349 23.4915 16.7134C23.4915 16.6919 23.5531 16.5789 23.6283 16.4623ZM23.6953 23.7011C23.8346 23.7135 23.8996 23.6897 24.0296 23.5789C24.5147 23.1657 25.1111 22.8508 25.8334 22.6266C26.026 22.5667 26.6169 22.4306 27.1464 22.324C28.2967 22.0924 28.7513 21.9863 29.3215 21.8162C31.1507 21.2705 32.1918 20.5045 32.5434 19.4454C32.6355 19.1682 32.7621 18.3463 32.7623 18.0245L32.7625 17.7972L32.6156 17.9301C32.5347 18.0032 32.3462 18.1215 32.1966 18.1929C31.9403 18.3153 31.9005 18.3235 31.509 18.3355L31.0935 18.3483L31.0313 18.5142C30.9492 18.7335 30.7873 19.0583 30.6286 19.3226C30.2567 19.9418 29.8449 20.3757 29.3309 20.6899C28.9329 20.9332 28.121 21.321 27.515 21.5572C25.4751 22.3523 25.0451 22.5445 24.5077 22.901C24.1815 23.1174 23.7331 23.5054 23.6676 23.628C23.6388 23.682 23.6443 23.6966 23.6953 23.7011ZM24.1066 4.14254C24.1899 4.1515 24.2705 4.14803 24.2856 4.13486C24.3007 4.12165 24.3216 3.99957 24.3321 3.86353C24.3425 3.72749 24.3594 3.56169 24.3695 3.49508L24.388 3.374L24.7314 3.39816C24.9202 3.41144 25.0791 3.42672 25.0845 3.43208C25.0899 3.43747 25.0797 3.6093 25.062 3.81402C25.0255 4.23446 25.0313 4.24706 25.2565 4.23235L25.3992 4.22303L25.4587 3.45557C25.4914 3.03346 25.5195 2.62784 25.5211 2.55423L25.524 2.42037H25.3505H25.1771L25.1544 2.586C25.1419 2.67706 25.1317 2.82967 25.1317 2.92512V3.0986H24.9406C24.8354 3.0986 24.6727 3.08807 24.579 3.07522L24.4085 3.0518L24.4296 2.70501L24.4507 2.35819L24.2862 2.33562C24.1957 2.3232 24.1139 2.32078 24.1045 2.3302C24.0893 2.34541 23.9589 3.85714 23.9561 4.04973C23.9552 4.11369 23.98 4.12897 24.1066 4.14254ZM24.3205 23.5407C25.2513 23.1312 26.0208 22.9549 27.0216 22.9216C27.7668 22.8967 28.3704 22.9416 29.3928 23.0976C30.099 23.2054 30.1986 23.212 31.1401 23.2127C31.9688 23.2134 32.1991 23.2021 32.4951 23.1465C33.6087 22.9372 34.3831 22.4202 34.9132 21.5323C35.1094 21.2036 35.4012 20.4781 35.4012 20.3189C35.4012 20.2923 35.3033 20.3453 35.1783 20.4396C35.0558 20.5321 34.8351 20.6639 34.688 20.7324C34.4283 20.8534 34.4051 20.8575 33.8807 20.8751L33.3408 20.8933L33.1691 21.1253C32.7758 21.6566 32.2304 22.0943 31.7305 22.2798C31.2945 22.4416 31.0815 22.4569 29.5533 22.4369C28.7786 22.4268 27.9202 22.4326 27.6456 22.4497C26.4422 22.5248 25.3314 22.846 24.5584 23.3424C24.3058 23.5046 24.1978 23.5947 24.3205 23.5407ZM25.7978 4.32923C25.9464 4.3515 25.9716 4.34511 26.0283 4.27079C26.0634 4.22489 26.1106 4.14318 26.1332 4.08917C26.1559 4.03516 26.2006 3.99104 26.2325 3.99104C26.3857 3.99118 26.8951 4.10209 26.9188 4.14047C26.9335 4.16438 26.956 4.25994 26.9688 4.3529L26.992 4.52185L27.1725 4.56058C27.2717 4.58189 27.3602 4.59199 27.3692 4.58307C27.3962 4.55601 26.998 2.74114 26.9555 2.69752C26.9414 2.68306 26.8522 2.667 26.7574 2.66182L26.585 2.6524L26.108 3.44874C25.8456 3.88674 25.6309 4.25841 25.6309 4.27465C25.6309 4.29089 25.706 4.31545 25.7978 4.32923ZM26.5295 3.39774C26.6118 3.25285 26.6899 3.1343 26.7029 3.1343C26.7229 3.1343 26.8434 3.66481 26.8433 3.75287C26.8433 3.76919 26.7992 3.77426 26.7452 3.76423C26.6913 3.75416 26.587 3.7361 26.5135 3.72407C26.4399 3.71204 26.3797 3.69298 26.3797 3.6817C26.3797 3.67042 26.4471 3.54263 26.5295 3.39774ZM27.6002 4.73667C27.9353 4.86307 28.0241 4.82109 28.4426 4.3384C28.9122 3.79671 29.2662 3.3694 29.2672 3.34305C29.2682 3.31403 29.0647 3.24139 28.9823 3.24139C28.9292 3.24139 28.6964 3.516 28.4657 3.85086C28.4265 3.9078 28.377 3.9546 28.3558 3.95484C28.333 3.95513 28.2907 3.75884 28.2531 3.47877L28.1892 3.00222L28.0085 2.94435C27.9091 2.91255 27.8208 2.89345 27.8123 2.90198C27.8038 2.91048 27.8578 3.22993 27.9323 3.61191C28.0641 4.28807 28.066 4.30892 28.0044 4.40308C27.9461 4.49222 27.9275 4.49818 27.7676 4.47923C27.5811 4.45713 27.5782 4.45874 27.5427 4.60734C27.5233 4.68873 27.5334 4.71147 27.6002 4.73667ZM29.1465 5.19051C29.217 5.22 29.2907 5.23877 29.3102 5.23224C29.3299 5.22571 29.4015 5.07628 29.4694 4.90019C29.5374 4.72407 29.6059 4.56693 29.6218 4.55094C29.6853 4.48686 29.7622 4.64029 29.7837 4.87417C29.8351 5.43207 29.8378 5.44267 29.9394 5.49001C30.089 5.55968 30.2308 5.59517 30.2308 5.56293C30.2308 5.34733 30.1395 4.7593 30.0879 4.64257C30.0361 4.52531 30.0317 4.49076 30.0686 4.49076C30.0949 4.49076 30.2023 4.40101 30.3073 4.29128C30.4915 4.09888 30.5035 4.09256 30.6472 4.11177C30.7904 4.13094 30.797 4.12747 30.8201 4.02213C30.8493 3.88941 30.8168 3.85204 30.6486 3.82473C30.4428 3.79128 30.3495 3.83569 30.1089 4.08125C29.8902 4.3046 29.7316 4.37956 29.7316 4.25966C29.7316 4.23071 29.7797 4.08574 29.8386 3.93746C29.9799 3.58125 29.9773 3.54888 29.8027 3.49119C29.7242 3.46524 29.6513 3.45256 29.6409 3.46302C29.6134 3.49062 29.0184 5.05437 29.0184 5.0992C29.0184 5.11994 29.0761 5.16106 29.1465 5.19051ZM29.8198 30.8833C30.1556 30.7938 30.1429 30.8384 29.8029 30.9427C29.6166 30.9998 29.4562 31.0465 29.4464 31.0463C29.3897 31.0454 29.6688 30.9236 29.8198 30.8833ZM30.2754 30.8111C30.2999 30.821 30.2799 30.8291 30.2308 30.8291C30.1818 30.8291 30.1618 30.821 30.1863 30.8111C30.2108 30.8012 30.2509 30.8012 30.2754 30.8111ZM30.4893 30.7754C30.5139 30.7853 30.4938 30.7934 30.4448 30.7934C30.3957 30.7934 30.3757 30.7853 30.4002 30.7754C30.4247 30.7655 30.4648 30.7655 30.4893 30.7754ZM30.6052 5.76826L30.7657 5.84633L31.3273 5.50975C31.6362 5.32462 31.8937 5.18669 31.8996 5.20326C31.9055 5.21982 31.7975 5.44903 31.6596 5.71257L31.4089 6.1918L31.5532 6.27301C31.6325 6.31763 31.7017 6.34854 31.707 6.34165C31.7167 6.32887 31.9027 5.9788 32.2943 5.23635C32.4145 5.00832 32.5129 4.79846 32.5129 4.76997C32.5129 4.721 32.3051 4.59784 32.2225 4.59784C32.187 4.59784 31.6326 4.92054 31.2413 5.16899C31.1492 5.22746 31.0669 5.26833 31.0585 5.25983C31.05 5.25134 31.1571 5.02799 31.2966 4.76348C31.436 4.499 31.5501 4.26883 31.5501 4.25198C31.5501 4.20529 31.3116 4.08703 31.2697 4.11294C31.2377 4.13276 30.4447 5.63422 30.4447 5.67498C30.4447 5.68337 30.5169 5.72532 30.6052 5.76826ZM31.461 30.6248C31.6375 30.603 31.9344 30.5677 32.1207 30.5465C32.6705 30.4837 32.8904 30.3305 32.7464 30.1105C32.6987 30.0376 32.4553 29.895 32.192 29.7856C32.128 29.759 32.3005 29.7899 32.4818 29.8374C32.6543 29.8826 32.9052 30.1525 32.9052 30.2929C32.9052 30.4823 32.7583 30.5477 32.1742 30.6184C31.7298 30.6722 30.7344 30.7641 30.644 30.7597C30.5561 30.7554 31.0058 30.6812 31.461 30.6248ZM32.7967 7.00214L32.9379 7.09567L33.0239 6.98012C33.0712 6.91658 33.1542 6.79632 33.2084 6.71286C33.2625 6.6294 33.3175 6.56115 33.3305 6.56115C33.3435 6.56115 33.4621 6.63208 33.5939 6.71875C33.9489 6.9522 34.1812 6.96527 34.3973 6.76401C34.508 6.66095 34.6167 6.44442 34.6167 6.32701C34.6167 6.17555 34.5143 6.00161 34.3549 5.88238C34.0777 5.67502 33.7095 5.41886 33.6885 5.41886C33.6652 5.41886 33.5962 5.51478 33.0418 6.3172C32.8294 6.62476 32.6555 6.88363 32.6555 6.89252C32.6555 6.90137 32.7191 6.9507 32.7967 7.00214ZM33.7046 5.99936C33.7454 5.93582 33.7919 5.88359 33.808 5.88334C33.8619 5.88256 34.1517 6.09902 34.1883 6.16749C34.2524 6.2875 34.2297 6.40912 34.128 6.48918C34.0096 6.58239 33.9145 6.56515 33.682 6.40822C33.5155 6.29585 33.5145 6.29396 33.5722 6.20486C33.6042 6.15542 33.6638 6.06293 33.7046 5.99936ZM34.5256 8.29007C34.7895 8.51785 35.0161 8.72128 35.029 8.7422C35.0522 8.77975 35.2585 8.61187 35.2585 8.55543C35.2585 8.54055 35.0981 8.38927 34.902 8.21928C34.7058 8.04926 34.5454 7.89484 34.5454 7.87613C34.5454 7.85739 34.6144 7.76901 34.6986 7.67973L34.8518 7.51738L35.1879 7.80545L35.5241 8.09352L35.6067 8.01581C35.6522 7.97305 35.6847 7.91215 35.679 7.88045C35.6733 7.84875 35.5363 7.70615 35.3744 7.56354C35.2126 7.42093 35.0803 7.28882 35.0803 7.2699C35.0803 7.22478 35.2683 6.9895 35.3044 6.9895C35.3197 6.9895 35.4882 7.12586 35.6788 7.29253C35.8693 7.4592 36.0361 7.59574 36.0495 7.59595C36.0629 7.59616 36.11 7.54551 36.1542 7.4834L36.2345 7.37046L36.1261 7.27815C36.0665 7.22739 35.8475 7.03727 35.6393 6.85564C35.4312 6.67402 35.2475 6.52545 35.2311 6.52545C35.2148 6.52545 34.9993 6.7624 34.7523 7.05197C34.5052 7.34154 34.2452 7.64543 34.1744 7.72724L34.0457 7.87599L34.5256 8.29007ZM34.9046 36.5481C35.2002 36.8905 35.4626 37.1921 35.4878 37.2178C35.5253 37.2567 35.5994 37.2082 35.9041 36.9454C36.108 36.7695 36.312 36.5749 36.3573 36.5128C36.5102 36.304 36.4453 35.9938 36.2121 35.8199C36.1077 35.7421 35.9194 35.7243 35.7449 35.776C35.6504 35.8039 35.6448 35.8003 35.6683 35.7264C35.6966 35.637 35.625 34.9779 35.5789 34.9031C35.556 34.8661 35.5164 34.883 35.4043 34.9778C35.2635 35.0969 35.2598 35.1056 35.2773 35.2789C35.3468 35.9652 35.3459 35.9863 35.2422 36.1094C35.1889 36.173 35.1343 36.2247 35.1209 36.2247C35.1075 36.2247 34.9961 36.1044 34.8734 35.957C34.7506 35.8099 34.6359 35.6894 34.6184 35.6894C34.5778 35.6894 34.3671 35.866 34.3671 35.8999C34.3671 35.9138 34.609 36.2058 34.9046 36.5481ZM35.5171 36.2626C35.7908 36.0387 35.8467 36.0191 35.9639 36.1062C36.1357 36.234 36.114 36.3486 35.8765 36.5681C35.7622 36.6738 35.6446 36.7602 35.6152 36.7602C35.558 36.7602 35.3335 36.5181 35.3313 36.4543C35.3305 36.4332 35.4141 36.3472 35.5171 36.2626ZM35.6187 9.19037C35.657 9.35282 35.8843 9.63814 36.0394 9.71842C36.1899 9.79631 36.3765 9.81859 36.5276 9.77675C36.7632 9.7115 36.7727 9.6964 36.6855 9.52527C36.6197 9.39608 36.5973 9.37813 36.5308 9.40147C36.4881 9.4165 36.3832 9.42964 36.2977 9.43067C36.1663 9.43228 36.1263 9.41475 36.0391 9.31709C35.8964 9.1571 35.8961 8.94642 36.0384 8.75291C36.2851 8.4175 36.5464 8.27818 36.7826 8.35614C36.9767 8.42015 37.0876 8.60177 37.0601 8.80959C37.0398 8.96327 37.0444 8.97447 37.1628 9.05426C37.3083 9.15196 37.3425 9.13939 37.3989 8.96784C37.5479 8.51624 37.0355 7.94174 36.5364 8.00089C36.311 8.02763 36.1495 8.10705 35.9431 8.29285C35.658 8.54944 35.5427 8.86846 35.6187 9.19037ZM35.8431 34.8196C35.9096 34.8786 36.1915 35.1426 36.4695 35.4063C36.7476 35.67 36.987 35.8856 37.0016 35.8856C37.0159 35.8856 37.078 35.8288 37.1389 35.7592L37.2502 35.6325L37.073 34.9962C36.9756 34.6462 36.9039 34.3516 36.9139 34.3415C36.9243 34.3314 37.1104 34.494 37.3283 34.7029C37.5458 34.9117 37.7358 35.0826 37.7505 35.0826C37.7651 35.0826 37.8239 35.033 37.8817 34.9725L37.9865 34.8624L37.6834 34.5748C36.5567 33.5058 36.6641 33.5761 36.5031 33.8025L36.4316 33.903L36.596 34.5323C36.6865 34.8784 36.7537 35.1683 36.7455 35.1766C36.7373 35.1848 36.5505 35.0208 36.3303 34.812L35.9301 34.4325L35.826 34.5322C35.7689 34.587 35.7221 34.65 35.7221 34.6722C35.7221 34.6943 35.7766 34.7607 35.8431 34.8196ZM36.671 10.3985C36.7014 10.4378 36.7481 10.5002 36.7748 10.5372C36.8276 10.6109 36.8711 10.5827 37.6991 9.93892L38.0179 9.69097L38.132 9.8233C38.3566 10.0833 38.4444 10.2336 38.4019 10.2849C38.3802 10.3111 38.1217 10.5161 37.8275 10.7403C37.5337 10.9646 37.2926 11.1648 37.2919 11.1852C37.2915 11.2056 37.3361 11.2761 37.391 11.342L37.4909 11.4618L38.1844 10.9263C38.5656 10.6318 38.8762 10.3683 38.8744 10.3409C38.8701 10.2811 38.0807 9.23838 38.0396 9.23838C38.024 9.23838 37.861 9.35489 37.6777 9.49732C37.4944 9.63971 37.2242 9.84822 37.0772 9.96062C36.599 10.326 36.6077 10.3167 36.671 10.3985ZM37.728 33.4746C38.0268 33.7152 38.2771 33.9269 38.2839 33.9452C38.2907 33.9635 38.2276 34.0674 38.1438 34.1761L37.9915 34.3738L38.096 34.4591C38.1534 34.506 38.2115 34.541 38.2254 34.5369C38.2564 34.5276 39.1097 33.4682 39.1097 33.4391C39.1097 33.4277 39.0584 33.3804 38.996 33.3342L38.8826 33.2501L38.791 33.3703C38.7407 33.4364 38.6662 33.5299 38.6255 33.578L38.5513 33.6656L37.9658 33.1962L37.3803 32.7268L37.2823 32.8413C37.2281 32.9044 37.1842 32.9742 37.1842 32.9966C37.1842 33.019 37.4288 33.2341 37.728 33.4746ZM37.8204 11.9692C37.9102 12.1165 37.9772 12.1656 38.1202 12.1888C38.2219 12.2054 39.7708 12.0143 39.9231 11.9664C39.9587 11.9553 39.9509 11.9171 39.8899 11.8087C39.7937 11.6375 39.7769 11.6357 39.2424 11.7423C39.0313 11.7844 38.8498 11.8102 38.8391 11.7995C38.8284 11.7889 38.9332 11.6109 39.0716 11.4038C39.2103 11.1968 39.3237 11.0021 39.3237 10.9713C39.3237 10.8975 39.1718 10.6644 39.1322 10.6771C39.1151 10.6825 38.9511 10.9433 38.7674 11.2566C38.5838 11.57 38.4059 11.8464 38.3723 11.871C38.265 11.9497 38.1573 11.9222 38.0464 11.7873C37.9419 11.6603 37.9398 11.6596 37.8478 11.72C37.7373 11.7923 37.7337 11.8271 37.8204 11.9692ZM37.9434 32.2177L38.0646 32.2894L38.2065 32.0707C38.2846 31.9505 38.3937 31.7743 38.449 31.6794C38.5043 31.5844 38.5702 31.4988 38.5956 31.4891C38.6415 31.4714 38.9489 31.6335 38.9874 31.6956C39.007 31.7276 38.9461 31.8377 38.6683 32.2714L38.5371 32.4765L38.654 32.5479C38.7182 32.5872 38.7792 32.6193 38.7895 32.6194C38.7999 32.6195 38.9111 32.4517 39.037 32.2466L39.2663 31.8736L39.4374 31.9699C39.5316 32.0229 39.6086 32.077 39.6089 32.0901C39.6089 32.1033 39.4973 32.288 39.3611 32.5006L39.1137 32.8873L39.2096 32.9674C39.3661 33.0979 39.3233 33.1426 39.8361 32.313C39.9466 32.1346 40.0368 31.9726 40.0368 31.9531C40.0368 31.9142 39.9324 31.8438 39.1097 31.3276C38.6861 31.0619 38.5474 30.9909 38.5167 31.0238C38.4625 31.0822 37.8706 32.0188 37.8435 32.0895C37.8286 32.1285 37.8596 32.1683 37.9434 32.2177ZM38.7992 13.5594C39.0694 14.0627 39.1361 14.1493 39.3094 14.2219C39.4806 14.2934 39.6492 14.2679 39.8083 14.1465C40.0836 13.9363 40.0992 13.7348 39.8764 13.276C39.7879 13.0944 39.7159 12.9397 39.7159 12.932C39.7159 12.9244 39.7901 12.8745 39.881 12.8212C40.0753 12.7072 40.0622 12.6976 40.2729 13.1099C40.3439 13.2482 40.4326 13.4128 40.4708 13.4758L40.54 13.5903L40.6641 13.5311C40.7322 13.4985 40.7835 13.455 40.7778 13.4344C40.7575 13.3587 40.1752 12.2726 40.1552 12.2726C40.1438 12.2726 40.0525 12.3186 39.952 12.3748C39.8514 12.4311 39.5287 12.6024 39.2345 12.7555C38.6419 13.064 38.5742 13.1025 38.5763 13.129C38.577 13.139 38.6776 13.3327 38.7992 13.5594ZM38.869 30.6923C38.9325 30.7312 38.9946 30.7631 39.0067 30.7632C39.0188 30.7632 39.3123 30.8999 39.6592 31.0667C40.0058 31.2336 40.3125 31.3702 40.3406 31.3702C40.3938 31.3702 40.5004 31.1961 40.5004 31.1094C40.5004 31.0812 40.3631 30.9954 40.187 30.9135C39.3921 30.5439 39.181 30.4368 39.181 30.404C39.181 30.3845 39.2292 30.2732 39.2877 30.1567L39.3946 29.9448L39.5462 30.011C39.6296 30.0474 39.9217 30.1839 40.1955 30.3144C40.469 30.4449 40.7154 30.5471 40.7432 30.5415C40.7906 30.5319 40.9169 30.2755 40.888 30.2477C40.8805 30.2406 40.6099 30.1084 40.2864 29.9537C39.4588 29.5582 39.538 29.6315 39.661 29.3742C39.7181 29.2547 39.7787 29.157 39.7958 29.157C39.83 29.157 39.9577 29.2147 40.6555 29.546C40.9072 29.6657 41.1283 29.7545 41.1462 29.7434C41.1989 29.7108 41.2888 29.468 41.2588 29.4397C41.2175 29.4007 39.7184 28.6929 39.6774 28.6929C39.6578 28.6929 39.6122 28.7612 39.5758 28.8446C39.5394 28.9281 39.3857 29.2534 39.2338 29.5675C38.9468 30.1622 38.7532 30.5808 38.7532 30.6065C38.7532 30.6148 38.8052 30.6534 38.869 30.6923ZM39.2053 13.1847C39.2973 13.1332 39.3932 13.0989 39.4182 13.1085C39.4874 13.1352 39.6803 13.5417 39.6803 13.6612C39.6803 13.8713 39.4428 13.9567 39.298 13.7986C39.2174 13.7106 39.0427 13.3861 39.0398 13.3197C39.0391 13.2969 39.1137 13.2361 39.2053 13.1847ZM39.39 14.7535C39.5316 15.0649 39.6589 15.0701 40.3713 14.7938C40.6562 14.6833 40.9048 14.5928 40.9229 14.5928C40.9582 14.5928 41.1554 15.0554 41.1308 15.0802C41.1226 15.0883 40.8933 15.1805 40.6209 15.2851C39.7894 15.6045 39.7462 15.6263 39.7733 15.7131C39.8268 15.8859 39.8585 15.9493 39.8914 15.9493C39.9103 15.9493 40.1873 15.8472 40.5072 15.7223C40.827 15.5975 41.1889 15.457 41.3116 15.4102C41.4339 15.3633 41.5345 15.3088 41.5341 15.2891C41.5341 15.2503 41.2488 14.4794 41.1554 14.2656L41.0984 14.1348L40.9686 14.1814C40.8973 14.2071 40.6099 14.3182 40.3299 14.4283C40.0497 14.5384 39.7904 14.6285 39.7534 14.6285C39.7163 14.6285 39.6549 14.5856 39.6164 14.533C39.5512 14.4433 39.5401 14.4403 39.4353 14.4838C39.3062 14.5374 39.3023 14.5603 39.39 14.7535ZM40.1467 27.8115C40.2069 27.9028 40.3071 28.0202 40.3695 28.0725C40.4316 28.1248 40.6591 28.3326 40.8748 28.5344C41.0905 28.7362 41.3109 28.9358 41.3647 28.9781L41.4628 29.055L41.4985 28.9616C41.5929 28.7129 41.5987 28.7245 41.2157 28.411C41.0185 28.2495 40.857 28.1046 40.857 28.0892C40.857 28.0737 41.0695 28.0417 41.3294 28.018C41.589 27.9943 41.8115 27.9638 41.8233 27.9502C41.859 27.909 41.9663 27.6141 41.9513 27.599C41.9435 27.5913 41.6179 27.6321 41.2275 27.6899L40.5182 27.7948L40.4348 27.7174C40.3624 27.6502 40.3542 27.6177 40.3731 27.4741C40.3941 27.3125 40.392 27.3072 40.2811 27.2686C40.2187 27.2469 40.1641 27.2332 40.1595 27.2381C40.1303 27.27 40.0368 27.5344 40.0368 27.5846C40.0368 27.6181 40.086 27.7202 40.1467 27.8115ZM40.0786 16.5744C40.1124 16.6786 40.1324 16.687 40.7425 16.8528C41.3523 17.0186 41.4204 17.0413 41.3886 17.0689C41.3804 17.0761 41.1419 17.1491 40.858 17.2313C40.5742 17.3135 40.3385 17.3844 40.3339 17.389C40.3135 17.4093 40.4052 17.6984 40.4316 17.6984C40.4947 17.6984 42.0886 17.2252 42.1182 17.1978C42.1357 17.1814 42.1278 17.1011 42.1004 17.0141L42.0515 16.8596L41.7128 16.7659C41.5263 16.7144 41.2414 16.6359 41.0798 16.5914C40.9179 16.5469 40.7857 16.499 40.7857 16.4849C40.7857 16.4708 41.0199 16.3899 41.3063 16.3051L41.8272 16.151L41.8087 16.0115C41.7983 15.9348 41.7802 15.8621 41.768 15.85C41.7559 15.8379 41.3615 15.9383 40.8912 16.0731C39.9555 16.3415 39.9955 16.3168 40.0786 16.5744ZM40.545 26.1758C40.5888 26.1861 40.9137 26.2596 41.266 26.3392C41.6186 26.4188 41.9114 26.4882 41.9167 26.4935C41.9217 26.4988 41.8939 26.6465 41.8547 26.8216C41.8151 26.9968 41.7734 27.182 41.762 27.2332C41.7452 27.3095 41.7566 27.3304 41.8251 27.3487C42.0462 27.408 42.0422 27.4141 42.1688 26.8276C42.2334 26.5283 42.2858 26.2636 42.2847 26.2395C42.284 26.2153 42.2469 26.1871 42.203 26.1768C41.7723 26.0762 40.5681 25.8015 40.5578 25.8015C40.5453 25.8015 40.4647 26.0937 40.4647 26.1379C40.4647 26.1485 40.5007 26.1655 40.545 26.1758ZM40.5246 18.2696C40.5539 18.4458 40.5457 18.4438 40.9343 18.3732C41.3843 18.2916 41.3562 18.2918 41.3562 18.3697C41.3562 18.4489 41.1961 18.6017 40.8973 18.8075L40.6705 18.9638L40.6915 19.1405C40.7029 19.2377 40.725 19.3299 40.7404 19.3454C40.7832 19.3882 41.4375 18.8741 41.5002 18.7481C41.5509 18.647 41.5616 18.6419 41.6293 18.687C41.6703 18.7141 41.8058 18.7568 41.931 18.7819C42.1321 18.8222 42.1653 18.8409 42.2177 18.944C42.2972 19.1007 42.2975 19.1009 42.4263 19.0726C42.5265 19.0506 42.5361 19.0377 42.5151 18.9532C42.4402 18.6527 42.3243 18.5592 41.9285 18.4813C41.8069 18.4573 41.6839 18.4141 41.655 18.3852C41.5455 18.2755 41.6061 18.2483 42.1852 18.147C42.3115 18.1248 42.3189 18.1163 42.3182 17.9913C42.3175 17.7962 42.2822 17.7604 42.1189 17.7886C41.8415 17.8364 40.6587 18.0558 40.5806 18.0739C40.5004 18.0924 40.4972 18.103 40.5246 18.2696ZM41.4539 25.4947C41.9042 25.5491 42.3115 25.5882 42.3582 25.5816C42.4338 25.5709 42.4437 25.5511 42.4437 25.4089V25.2482L42.1324 25.2102C41.9609 25.1893 41.8112 25.1625 41.7994 25.1507C41.7805 25.1319 41.8443 24.4797 41.8675 24.4567C41.8721 24.4519 42.0233 24.4665 42.2034 24.4892C42.3831 24.512 42.5411 24.5202 42.5536 24.5074C42.5664 24.4947 42.5846 24.4139 42.5946 24.3278L42.612 24.1712L41.7256 24.0635C41.0902 23.9862 40.8313 23.9668 40.812 23.9951C40.7971 24.0168 40.7889 24.0988 40.7942 24.1773L40.8035 24.3201L41.1561 24.3641C41.3505 24.3883 41.5177 24.4165 41.528 24.4268C41.5494 24.4482 41.4821 25.0803 41.4557 25.1067C41.4464 25.1161 41.276 25.1048 41.077 25.0814C40.878 25.058 40.7072 25.0471 40.6972 25.0571C40.6872 25.0672 40.6691 25.1474 40.6569 25.2355L40.6352 25.3957L41.4539 25.4947ZM40.8837 20.0048C40.9179 20.0262 41.1547 20.1532 41.4097 20.2871C41.8757 20.5318 42.028 20.6209 41.9969 20.631C41.9877 20.6339 41.7395 20.654 41.4453 20.6756L40.9105 20.7148L40.8994 20.8843C40.8933 20.9776 40.9015 21.0538 40.9172 21.0537C41.1897 21.0522 42.6652 20.9356 42.6869 20.9139C42.7033 20.8975 42.7062 20.8135 42.6933 20.7274C42.667 20.5522 42.6966 20.5733 41.9189 20.1753C41.7085 20.0677 41.528 19.9658 41.5173 19.9488C41.507 19.9319 41.639 19.9082 41.8105 19.8961C41.9823 19.8841 42.2391 19.8653 42.3813 19.8542L42.6399 19.8341L42.6391 19.7212C42.6381 19.4986 42.6577 19.5025 41.778 19.5503C41.3401 19.5741 40.9454 19.6012 40.9015 19.6105C40.832 19.6251 40.8213 19.6499 40.8213 19.7966C40.8213 19.9191 40.8384 19.9766 40.8837 20.0048ZM41.2724 23.6008C41.4813 23.6136 41.8914 23.624 42.1834 23.624H42.7147L42.704 23.4399L42.6933 23.2559L42.1585 22.9196C41.8643 22.7346 41.6083 22.5684 41.5897 22.5503C41.5691 22.5302 41.7805 22.5174 42.1335 22.5174H42.7112V22.3597V22.2019L42.4883 22.1792C42.3657 22.1667 41.9606 22.1614 41.588 22.1674L40.9105 22.1783L40.8994 22.3462C40.8891 22.5097 40.893 22.5167 41.042 22.6091C41.1265 22.6614 41.3847 22.8268 41.6158 22.9767L42.0362 23.2492L41.4642 23.259L40.8926 23.2689V23.4232V23.5775L41.2724 23.6008Z" fill="white"/>
<path d="M54.32 22V7.9H57.38L61.88 15.98L66.38 7.9H69.36V22H66.04V14.34L62.82 19.92H60.82L57.64 14.42V22H54.32ZM71.9558 22V7.9H75.3758V16.06L81.8358 7.9H84.5358V22H81.1358V13.82L74.6558 22H71.9558ZM87.112 22V7.9H90.792V13.34H96.612V7.9H100.272V22H96.612V16.36H90.792V22H87.112ZM109.635 22.22C108.208 22.22 106.955 21.92 105.875 21.32C104.808 20.7067 103.975 19.8533 103.375 18.76C102.775 17.6667 102.475 16.3933 102.475 14.94C102.475 13.4733 102.768 12.2 103.355 11.12C103.955 10.0267 104.795 9.18 105.875 8.58C106.955 7.98 108.208 7.68 109.635 7.68C111.061 7.68 112.308 7.98 113.375 8.58C114.455 9.18 115.295 10.0267 115.895 11.12C116.495 12.2 116.795 13.4733 116.795 14.94C116.795 16.3933 116.495 17.6667 115.895 18.76C115.295 19.8533 114.455 20.7067 113.375 21.32C112.308 21.92 111.061 22.22 109.635 22.22ZM109.635 19.14C110.675 19.14 111.488 18.7733 112.075 18.04C112.675 17.2933 112.975 16.26 112.975 14.94C112.975 13.62 112.681 12.5933 112.095 11.86C111.508 11.1267 110.688 10.76 109.635 10.76C108.581 10.76 107.761 11.1267 107.175 11.86C106.588 12.5933 106.295 13.62 106.295 14.94C106.295 16.26 106.588 17.2933 107.175 18.04C107.761 18.7733 108.581 19.14 109.635 19.14ZM118.968 22V7.9H129.468V10.74H122.488V13.38H125.968C127.501 13.38 128.708 13.7533 129.588 14.5C130.481 15.2467 130.928 16.3067 130.928 17.68C130.928 19.0667 130.481 20.1333 129.588 20.88C128.708 21.6267 127.501 22 125.968 22H118.968ZM122.488 19.22H125.468C126.148 19.22 126.641 19.0933 126.948 18.84C127.268 18.5867 127.428 18.2 127.428 17.68C127.428 17.1733 127.268 16.7933 126.948 16.54C126.641 16.2867 126.148 16.16 125.468 16.16H122.488V19.22ZM132.737 22V7.9H139.517C141.117 7.9 142.35 8.31333 143.217 9.14C144.097 9.95333 144.537 11.08 144.537 12.52C144.537 13.96 144.097 15.0933 143.217 15.92C142.35 16.7333 141.117 17.14 139.517 17.14H136.417V22H132.737ZM136.417 14.32H138.877C140.317 14.32 141.037 13.72 141.037 12.52C141.037 11.32 140.317 10.72 138.877 10.72H136.417V14.32Z" fill="black"/>
<path d="M54.044 37V28.54H54.968V35.368L60.068 28.54H60.824V37H59.912V30.148L54.8 37H54.044ZM62.9268 37V28.54H63.9108V32.284H68.9868V28.54H69.9708V37H68.9868V33.136H63.9108V37H62.9268ZM72.0557 37V28.54H77.3477V29.392H73.0397V37H72.0557ZM79.8916 37L81.1996 34.468L77.5036 28.54H78.5716L81.6796 33.544L84.2476 28.54H85.2676L80.9356 37H79.8916ZM86.2706 37V28.54H87.2546V36.148H91.0586V28.54H92.0306V36.148H95.8346V28.54H96.8186V37H86.2706ZM98.9034 37V28.54H104.243V29.368H99.8634V32.296H103.991V33.124H99.8634V36.172H104.243V37H98.9034ZM107.823 37V29.392H104.751V28.54H111.891V29.392H108.819V37H107.823ZM112.966 37V28.54H113.89V35.368L118.99 28.54H119.746V37H118.834V30.148L113.722 37H112.966ZM121.261 37L122.761 34.24C123.017 33.768 123.321 33.464 123.673 33.328C123.025 33.208 122.521 32.948 122.161 32.548C121.809 32.148 121.633 31.628 121.633 30.988C121.633 30.204 121.873 29.6 122.353 29.176C122.841 28.752 123.541 28.54 124.453 28.54H127.801V37H126.817V33.424H125.401C125.009 33.424 124.693 33.484 124.453 33.604C124.221 33.724 124.013 33.952 123.829 34.288L122.353 37H121.261ZM124.597 32.644H126.817V29.356H124.597C123.269 29.356 122.605 29.9 122.605 30.988C122.605 32.092 123.269 32.644 124.597 32.644Z" fill="black"/>
</svg>
