<svg width="90" height="112" viewBox="0 0 90 112" fill="none" xmlns="http://www.w3.org/2000/svg">
<path d="M0.272 109.512V105.896H1.376C1.93067 105.203 2.34133 104.264 2.608 103.08C2.87467 101.885 3.008 100.403 3.008 98.632V95.72H10.496V105.896H12.096V109.512H10.896V107H1.456V109.512H0.272ZM2.752 105.896H9.168V96.824H4.24V98.728C4.24 100.445 4.11733 101.88 3.872 103.032C3.63733 104.184 3.264 105.139 2.752 105.896ZM16.1971 107.144C15.6638 107.144 15.1838 107.043 14.7571 106.84C14.3411 106.627 14.0105 106.339 13.7651 105.976C13.5198 105.613 13.3971 105.208 13.3971 104.76C13.3971 104.195 13.5411 103.747 13.8291 103.416C14.1278 103.085 14.6131 102.851 15.2851 102.712C15.9678 102.563 16.8958 102.488 18.0691 102.488H18.5811V101.992C18.5811 101.331 18.4425 100.856 18.1651 100.568C17.8985 100.269 17.4665 100.12 16.8691 100.12C16.3998 100.12 15.9465 100.189 15.5091 100.328C15.0718 100.456 14.6238 100.669 14.1651 100.968L13.7171 100.024C14.1225 99.736 14.6131 99.5067 15.1891 99.336C15.7758 99.1653 16.3358 99.08 16.8691 99.08C17.8718 99.08 18.6131 99.3253 19.0931 99.816C19.5838 100.307 19.8291 101.069 19.8291 102.104V107H18.6131V105.656C18.4105 106.115 18.0958 106.477 17.6691 106.744C17.2531 107.011 16.7625 107.144 16.1971 107.144ZM16.4051 106.168C17.0451 106.168 17.5678 105.949 17.9731 105.512C18.3785 105.064 18.5811 104.499 18.5811 103.816V103.336H18.0851C17.2211 103.336 16.5385 103.379 16.0371 103.464C15.5465 103.539 15.1998 103.677 14.9971 103.88C14.8051 104.072 14.7091 104.339 14.7091 104.68C14.7091 105.117 14.8585 105.475 15.1571 105.752C15.4665 106.029 15.8825 106.168 16.4051 106.168ZM22.3581 107V99.224H23.6541V102.456H27.8941V99.224H29.1901V107H27.8941V103.512H23.6541V107H22.3581ZM31.7488 107V99.224H33.0448V102.456H37.2848V99.224H38.5808V107H37.2848V103.512H33.0448V107H31.7488ZM41.1394 107V99.224H42.4354V101.992H44.7874C45.7794 101.992 46.5314 102.211 47.0434 102.648C47.5554 103.075 47.8114 103.683 47.8114 104.472C47.8114 105.251 47.5447 105.869 47.0114 106.328C46.4887 106.776 45.7474 107 44.7874 107H41.1394ZM48.9634 107V99.224H50.2594V107H48.9634ZM42.4354 106.072H44.6594C45.2567 106.072 45.7207 105.944 46.0514 105.688C46.3927 105.432 46.5634 105.032 46.5634 104.488C46.5634 103.955 46.398 103.56 46.0674 103.304C45.7367 103.048 45.2674 102.92 44.6594 102.92H42.4354V106.072ZM51.8509 107L55.0829 102.984L52.0429 99.224H53.5789L55.8349 102.088L58.1069 99.224H59.6269L56.5869 102.984L59.8189 107H58.2829L55.8189 103.912L53.3869 107H51.8509ZM65.4988 107V99.224H66.7948V102.456H71.0348V99.224H72.3308V107H71.0348V103.512H66.7948V107H65.4988ZM78.4094 107.144C77.1827 107.144 76.212 106.787 75.4974 106.072C74.7827 105.347 74.4254 104.365 74.4254 103.128C74.4254 102.328 74.5854 101.624 74.9054 101.016C75.2254 100.397 75.6627 99.9227 76.2174 99.592C76.7827 99.2507 77.4334 99.08 78.1694 99.08C79.2254 99.08 80.052 99.4213 80.6494 100.104C81.2467 100.776 81.5454 101.704 81.5454 102.888V103.384H75.6894C75.732 104.269 75.988 104.947 76.4574 105.416C76.9267 105.875 77.5774 106.104 78.4094 106.104C78.8787 106.104 79.3267 106.035 79.7534 105.896C80.18 105.747 80.5854 105.507 80.9694 105.176L81.4174 106.088C81.0654 106.419 80.6174 106.68 80.0734 106.872C79.5294 107.053 78.9747 107.144 78.4094 107.144ZM78.2014 100.04C77.4654 100.04 76.884 100.269 76.4574 100.728C76.0307 101.187 75.78 101.789 75.7054 102.536H80.4254C80.3934 101.747 80.1854 101.133 79.8014 100.696C79.428 100.259 78.8947 100.04 78.2014 100.04ZM85.1773 107V100.264H82.3613V99.224H89.3053V100.264H86.4733V107H85.1773Z" fill="#5C5C5C"/>
<path d="M18.3334 66.6667H71.6667C73.4349 66.6667 75.1305 65.9643 76.3808 64.714C77.631 63.4638 78.3334 61.7681 78.3334 60V26.6667C78.3334 24.8986 77.631 23.2029 76.3808 21.9526C75.1305 20.7024 73.4349 20 71.6667 20H45.2334C44.1354 19.9943 43.0557 19.7175 42.0904 19.1941C41.1251 18.6708 40.304 17.9171 39.7001 17L36.9667 13C36.3628 12.0829 35.5417 11.3292 34.5764 10.8059C33.6111 10.2825 32.5315 10.0057 31.4334 10H18.3334C16.5653 10 14.8696 10.7024 13.6194 11.9526C12.3691 13.2029 11.6667 14.8986 11.6667 16.6667V60C11.6667 63.6667 14.6667 66.6667 18.3334 66.6667Z" stroke="#B7B7B7" stroke-width="2" stroke-linecap="round" stroke-linejoin="round"/>
<path d="M36.6667 35L53.3334 51.6667" stroke="#B7B7B7" stroke-width="2" stroke-linecap="round" stroke-linejoin="round"/>
<path d="M53.3334 35L36.6667 51.6667" stroke="#B7B7B7" stroke-width="2" stroke-linecap="round" stroke-linejoin="round"/>
</svg>
